<svg xmlns="http://www.w3.org/2000/svg" xmlns:xlink="http://www.w3.org/1999/xlink" width="500" zoomAndPan="magnify" viewBox="0 0 375 374.999991" height="500" preserveAspectRatio="xMidYMid meet" version="1.0"><defs><g/><clipPath id="a323c9070f"><path d="M 192 14.0625 L 250 14.0625 L 250 68 L 192 68 Z M 192 14.0625 " clip-rule="nonzero"/></clipPath><clipPath id="40d165adf7"><path d="M 103.871094 54.300781 L 270.996094 54.300781 L 270.996094 228.210938 L 103.871094 228.210938 Z M 103.871094 54.300781 " clip-rule="nonzero"/></clipPath></defs><rect x="-37.5" width="450" fill="#ffffff" y="-37.499999" height="449.999989" fill-opacity="1"/><rect x="-37.5" width="450" fill="#f4fffb" y="-37.499999" height="449.999989" fill-opacity="1"/><g clip-path="url(#a323c9070f)"><path fill="#20665c" d="M 220.804688 14.066406 L 227.484375 34.621094 L 249.09375 34.621094 L 231.613281 47.320312 L 238.289062 67.875 L 220.804688 55.171875 L 203.324219 67.875 L 210 47.320312 L 192.515625 34.621094 L 214.128906 34.621094 L 220.804688 14.066406 " fill-opacity="1" fill-rule="nonzero"/></g><g clip-path="url(#40d165adf7)"><path fill="#20665c" d="M 231.109375 209.535156 C 187.617188 224.84375 139.945312 202.003906 124.636719 158.511719 C 110.0625 117.132812 130.03125 71.976562 169.460938 54.496094 C 167.265625 55.082031 165.074219 55.761719 162.890625 56.53125 C 116.875 72.730469 92.707031 123.167969 108.90625 169.1875 C 125.109375 215.203125 175.550781 239.371094 221.566406 223.167969 C 243.972656 215.28125 261.195312 199.269531 271.105469 179.609375 C 261.480469 192.980469 247.820312 203.648438 231.109375 209.535156 " fill-opacity="1" fill-rule="nonzero"/></g><path fill="#20665c" d="M 199.320312 150.773438 C 190.140625 131.597656 217.890625 114.859375 217.890625 114.859375 C 199.320312 131.003906 199.320312 150.773438 199.320312 150.773438 Z M 220.804688 104.871094 C 212.289062 115.714844 193.171875 126.769531 193.171875 142.207031 C 193.171875 146.46875 194.414062 150.492188 196.539062 154.027344 L 245.070312 154.027344 C 247.195312 150.492188 248.441406 146.46875 248.441406 142.207031 C 248.441406 126.769531 229.320312 115.714844 220.804688 104.871094 " fill-opacity="1" fill-rule="nonzero"/><path fill="#20665c" d="M 157.007812 194.089844 C 157.765625 194.652344 158.539062 195.195312 159.320312 195.722656 L 159.320312 183.578125 C 159.320312 182.832031 159.925781 182.226562 160.667969 182.226562 C 161.414062 182.226562 162.019531 182.832031 162.019531 183.578125 L 162.019531 197.476562 C 163.503906 198.402344 165.023438 199.273438 166.570312 200.101562 L 166.570312 183.578125 C 166.570312 182.832031 167.171875 182.226562 167.914062 182.226562 C 168.664062 182.226562 169.265625 182.832031 169.265625 183.578125 L 169.265625 201.46875 C 170.761719 202.195312 172.277344 202.878906 173.816406 203.511719 L 173.816406 183.578125 C 173.816406 182.832031 174.421875 182.226562 175.167969 182.226562 C 175.910156 182.226562 176.515625 182.832031 176.515625 183.578125 L 176.515625 204.554688 C 177.277344 204.832031 178.054688 205.09375 178.828125 205.351562 L 178.828125 179.535156 L 157.007812 179.535156 L 157.007812 194.089844 " fill-opacity="1" fill-rule="nonzero"/><path fill="#20665c" d="M 157.007812 110.914062 L 158.746094 110.914062 L 158.746094 178.664062 L 165.511719 178.664062 L 165.511719 171.074219 C 165.511719 169.746094 166.589844 168.671875 167.914062 168.671875 C 169.246094 168.671875 170.320312 169.746094 170.320312 171.074219 L 170.320312 178.664062 L 177.089844 178.664062 L 177.089844 110.914062 L 178.828125 110.914062 L 178.828125 109.878906 L 157.007812 109.878906 L 157.007812 110.914062 " fill-opacity="1" fill-rule="nonzero"/><path fill="#20665c" d="M 157.007812 101.4375 L 178.828125 101.4375 L 178.828125 100.398438 L 157.007812 100.398438 L 157.007812 101.4375 " fill-opacity="1" fill-rule="nonzero"/><path fill="#20665c" d="M 157.007812 109.417969 L 159.320312 109.417969 L 159.320312 105.953125 C 159.320312 105.210938 159.925781 104.609375 160.667969 104.609375 C 161.414062 104.609375 162.019531 105.210938 162.019531 105.953125 L 162.019531 109.417969 L 166.570312 109.417969 L 166.570312 105.953125 C 166.570312 105.210938 167.171875 104.609375 167.914062 104.609375 C 168.664062 104.609375 169.265625 105.210938 169.265625 105.953125 L 169.265625 109.417969 L 173.816406 109.417969 L 173.816406 105.953125 C 173.816406 105.210938 174.421875 104.609375 175.167969 104.609375 C 175.910156 104.609375 176.515625 105.210938 176.515625 105.953125 L 176.515625 109.417969 L 178.828125 109.417969 L 178.828125 101.910156 L 157.007812 101.910156 L 157.007812 109.417969 " fill-opacity="1" fill-rule="nonzero"/><path fill="#20665c" d="M 173.816406 100.035156 L 173.816406 99 L 162.019531 99 L 162.019531 100.035156 L 173.816406 100.035156 " fill-opacity="1" fill-rule="nonzero"/><path fill="#20665c" d="M 173.984375 98.660156 C 174.515625 97.773438 174.828125 96.769531 174.828125 95.703125 C 174.828125 91.839844 170.046875 89.074219 167.914062 86.367188 C 165.785156 89.074219 161.007812 91.839844 161.007812 95.703125 C 161.007812 96.769531 161.316406 97.773438 161.851562 98.660156 L 173.984375 98.660156 " fill-opacity="1" fill-rule="nonzero"/><path fill="#20665c" d="M 243.195312 175.898438 L 237.621094 175.898438 L 237.621094 168.441406 C 237.621094 166.902344 238.867188 165.652344 240.40625 165.652344 C 241.945312 165.652344 243.195312 166.902344 243.195312 168.441406 Z M 225.90625 175.898438 L 215.703125 175.898438 L 215.703125 166.796875 C 215.703125 163.976562 217.988281 161.691406 220.804688 161.691406 C 223.625 161.691406 225.90625 163.976562 225.90625 166.796875 Z M 203.992188 175.898438 L 198.417969 175.898438 L 198.417969 168.441406 C 198.417969 166.902344 199.664062 165.652344 201.203125 165.652344 C 202.746094 165.652344 203.992188 166.902344 203.992188 168.441406 Z M 182.65625 155.816406 L 182.65625 206.507812 C 189.300781 208.335938 196.261719 209.3125 203.378906 209.3125 C 205.261719 209.3125 207.136719 209.230469 209.007812 209.09375 L 209.007812 189.171875 C 209.007812 186.570312 218.203125 180.917969 220.804688 180.917969 C 223.410156 180.917969 232.605469 186.570312 232.605469 189.171875 L 232.605469 203.644531 C 242.558594 199.65625 251.480469 193.753906 258.957031 186.242188 L 258.957031 155.816406 L 182.65625 155.816406 " fill-opacity="1" fill-rule="nonzero"/><g fill="#20665c" fill-opacity="1"><g transform="translate(96.456349, 286.11212)"><g><path d="M 32.265625 -30.6875 L 32.265625 0 L 23.59375 0 L 23.59375 -11.96875 L 11.75 -11.96875 L 11.75 0 L 3.0625 0 L 3.0625 -30.6875 L 11.75 -30.6875 L 11.75 -19.15625 L 23.59375 -19.15625 L 23.59375 -30.6875 Z M 32.265625 -30.6875 "/></g></g></g><g fill="#20665c" fill-opacity="1"><g transform="translate(131.791239, 286.11212)"><g><path d="M 3.0625 -30.6875 L 11.75 -30.6875 L 11.75 0 L 3.0625 0 Z M 3.0625 -30.6875 "/></g></g></g><g fill="#20665c" fill-opacity="1"><g transform="translate(146.652936, 286.11212)"><g><path d="M 13.859375 0.609375 C 11.367188 0.609375 8.953125 0.300781 6.609375 -0.3125 C 4.273438 -0.925781 2.378906 -1.742188 0.921875 -2.765625 L 3.765625 -9.15625 C 5.140625 -8.25 6.734375 -7.519531 8.546875 -6.96875 C 10.359375 -6.414062 12.144531 -6.140625 13.90625 -6.140625 C 17.226562 -6.140625 18.890625 -6.972656 18.890625 -8.640625 C 18.890625 -9.515625 18.414062 -10.160156 17.46875 -10.578125 C 16.519531 -11.003906 14.992188 -11.453125 12.890625 -11.921875 C 10.578125 -12.421875 8.644531 -12.953125 7.09375 -13.515625 C 5.550781 -14.085938 4.222656 -15.003906 3.109375 -16.265625 C 2.003906 -17.523438 1.453125 -19.222656 1.453125 -21.359375 C 1.453125 -23.222656 1.960938 -24.90625 2.984375 -26.40625 C 4.003906 -27.914062 5.53125 -29.109375 7.5625 -29.984375 C 9.59375 -30.859375 12.082031 -31.296875 15.03125 -31.296875 C 17.050781 -31.296875 19.039062 -31.066406 21 -30.609375 C 22.957031 -30.160156 24.679688 -29.5 26.171875 -28.625 L 23.5 -22.1875 C 20.570312 -23.757812 17.738281 -24.546875 15 -24.546875 C 13.269531 -24.546875 12.007812 -24.289062 11.21875 -23.78125 C 10.4375 -23.269531 10.046875 -22.609375 10.046875 -21.796875 C 10.046875 -20.972656 10.507812 -20.351562 11.4375 -19.9375 C 12.375 -19.53125 13.878906 -19.109375 15.953125 -18.671875 C 18.296875 -18.179688 20.234375 -17.648438 21.765625 -17.078125 C 23.296875 -16.503906 24.625 -15.597656 25.75 -14.359375 C 26.882812 -13.117188 27.453125 -11.429688 27.453125 -9.296875 C 27.453125 -7.453125 26.9375 -5.785156 25.90625 -4.296875 C 24.882812 -2.804688 23.347656 -1.613281 21.296875 -0.71875 C 19.253906 0.164062 16.773438 0.609375 13.859375 0.609375 Z M 13.859375 0.609375 "/></g></g></g><g fill="#20665c" fill-opacity="1"><g transform="translate(175.017288, 286.11212)"><g><path d="M 26.65625 -16 C 28.40625 -15.382812 29.773438 -14.425781 30.765625 -13.125 C 31.765625 -11.832031 32.265625 -10.265625 32.265625 -8.421875 C 32.265625 -5.734375 31.179688 -3.65625 29.015625 -2.1875 C 26.859375 -0.726562 23.734375 0 19.640625 0 L 3.0625 0 L 3.0625 -30.6875 L 18.765625 -30.6875 C 22.679688 -30.6875 25.660156 -29.960938 27.703125 -28.515625 C 29.753906 -27.066406 30.78125 -25.117188 30.78125 -22.671875 C 30.78125 -21.203125 30.421875 -19.890625 29.703125 -18.734375 C 28.984375 -17.585938 27.96875 -16.675781 26.65625 -16 Z M 11.65625 -24.421875 L 11.65625 -18.5 L 17.625 -18.5 C 20.550781 -18.5 22.015625 -19.492188 22.015625 -21.484375 C 22.015625 -23.441406 20.550781 -24.421875 17.625 -24.421875 Z M 18.9375 -6.265625 C 21.976562 -6.265625 23.5 -7.300781 23.5 -9.375 C 23.5 -11.457031 21.976562 -12.5 18.9375 -12.5 L 11.65625 -12.5 L 11.65625 -6.265625 Z M 18.9375 -6.265625 "/></g></g></g><g fill="#20665c" fill-opacity="1"><g transform="translate(208.730104, 286.11212)"><g><path d="M 23.625 -5.96875 L 10.65625 -5.96875 L 8.25 0 L -0.609375 0 L 12.9375 -30.6875 L 21.484375 -30.6875 L 35.078125 0 L 26.046875 0 Z M 21.09375 -12.359375 L 17.140625 -22.1875 L 13.203125 -12.359375 Z M 21.09375 -12.359375 "/></g></g></g><g fill="#20665c" fill-opacity="1"><g transform="translate(243.188193, 286.11212)"><g><path d="M 32.265625 -30.6875 L 32.265625 0 L 23.59375 0 L 23.59375 -11.96875 L 11.75 -11.96875 L 11.75 0 L 3.0625 0 L 3.0625 -30.6875 L 11.75 -30.6875 L 11.75 -19.15625 L 23.59375 -19.15625 L 23.59375 -30.6875 Z M 32.265625 -30.6875 "/></g></g></g><g fill="#231f20" fill-opacity="1"><g transform="translate(102.415288, 321.937215)"><g><path d="M 12.015625 0 L 7.0625 -6.640625 L 4.515625 -3.828125 L 4.515625 0 L 1.984375 0 L 1.984375 -15.046875 L 4.515625 -15.046875 L 4.515625 -7.265625 L 11.6875 -15.046875 L 14.671875 -15.046875 L 8.859375 -8.609375 L 15.0625 0 Z M 12.015625 0 "/></g></g></g><g fill="#231f20" fill-opacity="1"><g transform="translate(117.838204, 321.937215)"><g><path d="M 11.6875 -3.390625 L 4.109375 -3.390625 L 2.671875 0 L 0.015625 0 L 6.65625 -15.046875 L 9.265625 -15.046875 L 15.828125 0 L 13.125 0 Z M 10.71875 -5.65625 L 7.890625 -12.328125 L 5.046875 -5.65625 Z M 10.71875 -5.65625 "/></g></g></g><g fill="#231f20" fill-opacity="1"><g transform="translate(133.690719, 321.937215)"><g><path d="M 12.25 -12.765625 L 7.484375 -12.765625 L 7.484375 0 L 4.9375 0 L 4.9375 -12.765625 L 0.1875 -12.765625 L 0.1875 -15.046875 L 12.25 -15.046875 Z M 12.25 -12.765625 "/></g></g></g><g fill="#231f20" fill-opacity="1"><g transform="translate(146.12786, 321.937215)"><g><path d="M 6.921875 -15.140625 C 8.867188 -15.140625 10.625 -14.625 12.1875 -13.59375 L 11.125 -11.359375 C 9.59375 -12.296875 8.125 -12.765625 6.71875 -12.765625 C 5.96875 -12.765625 5.375 -12.628906 4.9375 -12.359375 C 4.5 -12.085938 4.28125 -11.695312 4.28125 -11.1875 C 4.28125 -10.6875 4.476562 -10.257812 4.875 -9.90625 C 5.28125 -9.5625 5.78125 -9.304688 6.375 -9.140625 C 6.976562 -8.972656 7.628906 -8.765625 8.328125 -8.515625 C 9.035156 -8.265625 9.6875 -8 10.28125 -7.71875 C 10.882812 -7.445312 11.382812 -7.007812 11.78125 -6.40625 C 12.175781 -5.8125 12.375 -5.09375 12.375 -4.25 C 12.375 -2.9375 11.847656 -1.882812 10.796875 -1.09375 C 9.742188 -0.300781 8.378906 0.09375 6.703125 0.09375 C 5.554688 0.09375 4.445312 -0.117188 3.375 -0.546875 C 2.300781 -0.984375 1.363281 -1.566406 0.5625 -2.296875 L 1.65625 -4.484375 C 2.414062 -3.785156 3.25 -3.242188 4.15625 -2.859375 C 5.0625 -2.484375 5.925781 -2.296875 6.75 -2.296875 C 7.632812 -2.296875 8.320312 -2.457031 8.8125 -2.78125 C 9.3125 -3.101562 9.5625 -3.550781 9.5625 -4.125 C 9.5625 -4.644531 9.359375 -5.078125 8.953125 -5.421875 C 8.554688 -5.773438 8.054688 -6.035156 7.453125 -6.203125 C 6.847656 -6.367188 6.195312 -6.566406 5.5 -6.796875 C 4.800781 -7.035156 4.148438 -7.285156 3.546875 -7.546875 C 2.941406 -7.816406 2.4375 -8.242188 2.03125 -8.828125 C 1.632812 -9.421875 1.4375 -10.128906 1.4375 -10.953125 C 1.4375 -12.234375 1.9375 -13.25 2.9375 -14 C 3.945312 -14.757812 5.273438 -15.140625 6.921875 -15.140625 Z M 6.921875 -15.140625 "/></g></g></g><g fill="#231f20" fill-opacity="1"><g transform="translate(159.488653, 321.937215)"><g><path d="M 4.515625 0 L 1.984375 0 L 1.984375 -15.046875 L 4.515625 -15.046875 Z M 4.515625 0 "/></g></g></g><g fill="#231f20" fill-opacity="1"><g transform="translate(165.975724, 321.937215)"><g><path d="M 15.015625 0 L 12.53125 0 L 4.515625 -10.78125 L 4.515625 0 L 1.984375 0 L 1.984375 -15.046875 L 4.46875 -15.046875 L 12.53125 -4.234375 L 12.53125 -15.046875 L 15.015625 -15.046875 Z M 15.015625 0 "/></g></g></g><g fill="#231f20" fill-opacity="1"><g transform="translate(182.98819, 321.937215)"><g><path d="M 11.6875 -3.390625 L 4.109375 -3.390625 L 2.671875 0 L 0.015625 0 L 6.65625 -15.046875 L 9.265625 -15.046875 L 15.828125 0 L 13.125 0 Z M 10.71875 -5.65625 L 7.890625 -12.328125 L 5.046875 -5.65625 Z M 10.71875 -5.65625 "/></g></g></g><g fill="#231f20" fill-opacity="1"><g transform="translate(198.840705, 321.937215)"><g/></g></g><g fill="#231f20" fill-opacity="1"><g transform="translate(204.382643, 321.937215)"><g><path d="M 6.921875 -15.140625 C 8.867188 -15.140625 10.625 -14.625 12.1875 -13.59375 L 11.125 -11.359375 C 9.59375 -12.296875 8.125 -12.765625 6.71875 -12.765625 C 5.96875 -12.765625 5.375 -12.628906 4.9375 -12.359375 C 4.5 -12.085938 4.28125 -11.695312 4.28125 -11.1875 C 4.28125 -10.6875 4.476562 -10.257812 4.875 -9.90625 C 5.28125 -9.5625 5.78125 -9.304688 6.375 -9.140625 C 6.976562 -8.972656 7.628906 -8.765625 8.328125 -8.515625 C 9.035156 -8.265625 9.6875 -8 10.28125 -7.71875 C 10.882812 -7.445312 11.382812 -7.007812 11.78125 -6.40625 C 12.175781 -5.8125 12.375 -5.09375 12.375 -4.25 C 12.375 -2.9375 11.847656 -1.882812 10.796875 -1.09375 C 9.742188 -0.300781 8.378906 0.09375 6.703125 0.09375 C 5.554688 0.09375 4.445312 -0.117188 3.375 -0.546875 C 2.300781 -0.984375 1.363281 -1.566406 0.5625 -2.296875 L 1.65625 -4.484375 C 2.414062 -3.785156 3.25 -3.242188 4.15625 -2.859375 C 5.0625 -2.484375 5.925781 -2.296875 6.75 -2.296875 C 7.632812 -2.296875 8.320312 -2.457031 8.8125 -2.78125 C 9.3125 -3.101562 9.5625 -3.550781 9.5625 -4.125 C 9.5625 -4.644531 9.359375 -5.078125 8.953125 -5.421875 C 8.554688 -5.773438 8.054688 -6.035156 7.453125 -6.203125 C 6.847656 -6.367188 6.195312 -6.566406 5.5 -6.796875 C 4.800781 -7.035156 4.148438 -7.285156 3.546875 -7.546875 C 2.941406 -7.816406 2.4375 -8.242188 2.03125 -8.828125 C 1.632812 -9.421875 1.4375 -10.128906 1.4375 -10.953125 C 1.4375 -12.234375 1.9375 -13.25 2.9375 -14 C 3.945312 -14.757812 5.273438 -15.140625 6.921875 -15.140625 Z M 6.921875 -15.140625 "/></g></g></g><g fill="#231f20" fill-opacity="1"><g transform="translate(217.743436, 321.937215)"><g><path d="M 12.25 -12.765625 L 7.484375 -12.765625 L 7.484375 0 L 4.9375 0 L 4.9375 -12.765625 L 0.1875 -12.765625 L 0.1875 -15.046875 L 12.25 -15.046875 Z M 12.25 -12.765625 "/></g></g></g><g fill="#231f20" fill-opacity="1"><g transform="translate(230.180577, 321.937215)"><g><path d="M 11.6875 -3.390625 L 4.109375 -3.390625 L 2.671875 0 L 0.015625 0 L 6.65625 -15.046875 L 9.265625 -15.046875 L 15.828125 0 L 13.125 0 Z M 10.71875 -5.65625 L 7.890625 -12.328125 L 5.046875 -5.65625 Z M 10.71875 -5.65625 "/></g></g></g><g fill="#231f20" fill-opacity="1"><g transform="translate(246.033092, 321.937215)"><g><path d="M 12.25 -12.765625 L 7.484375 -12.765625 L 7.484375 0 L 4.9375 0 L 4.9375 -12.765625 L 0.1875 -12.765625 L 0.1875 -15.046875 L 12.25 -15.046875 Z M 12.25 -12.765625 "/></g></g></g><g fill="#231f20" fill-opacity="1"><g transform="translate(258.470233, 321.937215)"><g><path d="M 12.71875 -12.765625 L 4.515625 -12.765625 L 4.515625 -8.703125 L 11.859375 -8.703125 L 11.859375 -6.421875 L 4.515625 -6.421875 L 4.515625 -2.28125 L 12.984375 -2.28125 L 12.984375 0 L 1.984375 0 L 1.984375 -15.046875 L 12.71875 -15.046875 Z M 12.71875 -12.765625 "/></g></g></g></svg>