<svg xmlns="http://www.w3.org/2000/svg" xmlns:xlink="http://www.w3.org/1999/xlink" width="436" zoomAndPan="magnify" viewBox="0 0 327 239.999995" height="320" preserveAspectRatio="xMidYMid meet" version="1.0"><defs><g/></defs><rect x="-32.7" width="392.4" fill="#ffffff" y="-23.999999" height="287.999994" fill-opacity="1"/><path fill="#00cadc" d="M 164.769531 0 C 168.136719 0 171.5 0.140625 174.855469 0.425781 C 178.210938 0.707031 181.550781 1.132812 184.871094 1.695312 C 188.191406 2.257812 191.480469 2.960938 194.742188 3.804688 C 198.003906 4.644531 201.222656 5.621094 204.402344 6.734375 C 207.582031 7.847656 210.710938 9.089844 213.785156 10.464844 C 216.859375 11.839844 219.867188 13.34375 222.816406 14.972656 C 225.765625 16.601562 228.636719 18.351562 231.4375 20.222656 C 234.238281 22.09375 236.957031 24.082031 239.589844 26.179688 C 242.222656 28.28125 244.761719 30.488281 247.210938 32.800781 C 249.65625 35.113281 252.003906 37.527344 254.246094 40.039062 C 256.492188 42.550781 258.625 45.152344 260.652344 47.84375 C 262.675781 50.53125 264.585938 53.304688 266.375 56.15625 C 268.167969 59.007812 269.835938 61.929688 271.382812 64.921875 C 272.929688 67.914062 274.347656 70.964844 275.636719 74.078125 C 276.925781 77.191406 278.082031 80.351562 279.101562 83.558594 C 280.125 86.769531 281.011719 90.015625 281.761719 93.296875 C 282.511719 96.582031 283.121094 99.890625 283.589844 103.226562 C 284.0625 106.558594 284.390625 109.910156 284.582031 113.273438 C 284.769531 116.632812 284.816406 120 284.722656 123.367188 C 284.628906 126.730469 284.390625 130.089844 284.015625 133.4375 C 283.636719 136.78125 283.121094 140.109375 282.464844 143.410156 C 281.808594 146.714844 281.011719 149.984375 280.082031 153.21875 C 279.148438 156.457031 278.082031 159.648438 276.878906 162.792969 C 275.679688 165.941406 274.347656 169.03125 272.886719 172.066406 C 271.425781 175.101562 269.839844 178.066406 268.128906 180.96875 C 266.417969 183.871094 264.585938 186.695312 262.636719 189.441406 C 260.6875 192.1875 258.628906 194.847656 256.453125 197.421875 C 254.28125 199.992188 252.003906 202.472656 249.621094 204.851562 C 247.242188 207.234375 244.765625 209.511719 242.191406 211.683594 C 239.617188 213.855469 236.957031 215.917969 234.210938 217.867188 C 231.464844 219.816406 228.640625 221.644531 225.738281 223.359375 C 222.839844 225.070312 219.871094 226.65625 216.835938 228.117188 L 190.804688 174.058594 C 192.320312 173.328125 193.804688 172.535156 195.253906 171.679688 C 196.703125 170.824219 198.117188 169.90625 199.492188 168.933594 C 200.863281 167.960938 202.195312 166.929688 203.480469 165.84375 C 204.765625 164.753906 206.003906 163.617188 207.195312 162.425781 C 208.386719 161.234375 209.527344 159.996094 210.613281 158.710938 C 211.699219 157.421875 212.730469 156.09375 213.703125 154.71875 C 214.679688 153.347656 215.59375 151.933594 216.449219 150.484375 C 217.304688 149.035156 218.097656 147.550781 218.828125 146.03125 C 219.558594 144.515625 220.222656 142.96875 220.824219 141.398438 C 221.425781 139.824219 221.957031 138.226562 222.425781 136.609375 C 222.890625 134.992188 223.289062 133.355469 223.617188 131.707031 C 223.945312 130.054688 224.203125 128.390625 224.394531 126.71875 C 224.582031 125.042969 224.699219 123.367188 224.746094 121.683594 C 224.792969 120 224.769531 118.316406 224.675781 116.636719 C 224.582031 114.953125 224.417969 113.28125 224.179688 111.613281 C 223.945312 109.945312 223.640625 108.289062 223.265625 106.648438 C 222.890625 105.007812 222.449219 103.382812 221.9375 101.78125 C 221.425781 100.175781 220.847656 98.59375 220.203125 97.039062 C 219.558594 95.484375 218.851562 93.957031 218.078125 92.460938 C 217.304688 90.964844 216.46875 89.503906 215.574219 88.078125 C 214.675781 86.652344 213.722656 85.265625 212.710938 83.921875 C 211.699219 82.574219 210.628906 81.273438 209.507812 80.019531 C 208.386719 78.761719 207.214844 77.558594 205.988281 76.398438 C 204.765625 75.242188 203.496094 74.140625 202.179688 73.089844 C 200.863281 72.039062 199.503906 71.046875 198.105469 70.113281 C 196.703125 69.175781 195.265625 68.300781 193.792969 67.488281 C 192.320312 66.671875 190.8125 65.921875 189.277344 65.234375 C 187.738281 64.546875 186.175781 63.921875 184.585938 63.367188 C 182.996094 62.8125 181.386719 62.324219 179.757812 61.902344 C 178.125 61.480469 176.480469 61.128906 174.820312 60.847656 C 173.160156 60.566406 171.492188 60.355469 169.8125 60.210938 C 168.136719 60.070312 166.453125 60 164.769531 60 Z M 164.769531 0 " fill-opacity="1" fill-rule="nonzero"/><path fill="#7ed957" d="M 216.835938 228.117188 C 214.8125 229.089844 212.765625 230.007812 210.691406 230.867188 C 208.617188 231.722656 206.523438 232.523438 204.402344 233.265625 C 202.285156 234.007812 200.148438 234.6875 197.992188 235.308594 C 195.835938 235.929688 193.660156 236.492188 191.472656 236.992188 C 189.285156 237.492188 187.085938 237.929688 184.871094 238.304688 C 182.660156 238.679688 180.4375 238.992188 178.207031 239.246094 C 175.976562 239.496094 173.742188 239.683594 171.5 239.8125 C 169.257812 239.9375 167.015625 240 164.773438 240 C 162.527344 240 160.285156 239.9375 158.042969 239.8125 C 155.800781 239.683594 153.566406 239.496094 151.335938 239.246094 C 149.105469 238.996094 146.882812 238.679688 144.671875 238.304688 C 142.457031 237.929688 140.257812 237.492188 138.070312 236.992188 C 135.882812 236.492188 133.707031 235.933594 131.550781 235.3125 C 129.394531 234.691406 127.257812 234.007812 125.140625 233.265625 C 123.019531 232.527344 120.925781 231.726562 118.851562 230.867188 C 116.777344 230.007812 114.730469 229.089844 112.707031 228.117188 C 110.683594 227.144531 108.691406 226.113281 106.726562 225.027344 C 104.761719 223.941406 102.828125 222.804688 100.929688 221.609375 C 99.027344 220.414062 97.164062 219.167969 95.332031 217.871094 C 93.5 216.570312 91.710938 215.222656 89.953125 213.820312 C 88.199219 212.421875 86.484375 210.976562 84.8125 209.480469 C 83.136719 207.984375 81.507812 206.441406 79.921875 204.855469 C 78.332031 203.269531 76.792969 201.636719 75.296875 199.964844 C 73.800781 198.292969 72.351562 196.578125 70.953125 194.824219 C 69.554688 193.066406 68.203125 191.273438 66.90625 189.445312 C 65.605469 187.613281 64.359375 185.75 63.164062 183.847656 C 61.972656 181.949219 60.832031 180.015625 59.746094 178.050781 C 58.660156 176.085938 57.628906 174.09375 56.65625 172.070312 C 55.683594 170.046875 54.765625 168 53.90625 165.925781 C 53.046875 163.851562 52.246094 161.757812 51.507812 159.640625 C 50.765625 157.519531 50.082031 155.382812 49.460938 153.226562 C 48.839844 151.070312 48.28125 148.898438 47.78125 146.707031 C 47.28125 144.519531 46.84375 142.320312 46.464844 140.105469 C 46.089844 137.894531 45.777344 135.671875 45.523438 133.441406 C 45.273438 131.210938 45.085938 128.976562 44.960938 126.734375 C 44.832031 124.492188 44.769531 122.25 44.769531 120.007812 C 44.769531 117.761719 44.832031 115.519531 44.957031 113.277344 C 45.085938 111.039062 45.273438 108.800781 45.523438 106.570312 C 45.773438 104.339844 46.089844 102.121094 46.464844 99.90625 C 46.839844 97.695312 47.277344 95.492188 47.777344 93.304688 C 48.277344 91.117188 48.835938 88.945312 49.457031 86.785156 C 50.078125 84.628906 50.761719 82.492188 51.5 80.375 C 52.242188 78.253906 53.042969 76.160156 53.902344 74.085938 C 54.761719 72.011719 55.675781 69.964844 56.648438 67.941406 C 57.625 65.917969 58.652344 63.925781 59.738281 61.960938 C 60.824219 59.996094 61.964844 58.0625 63.160156 56.164062 C 64.351562 54.261719 65.597656 52.398438 66.898438 50.566406 C 68.195312 48.734375 69.546875 46.941406 70.945312 45.1875 C 72.34375 43.433594 73.792969 41.71875 75.285156 40.046875 C 76.78125 38.371094 78.324219 36.742188 79.910156 35.152344 C 81.496094 33.566406 83.128906 32.023438 84.800781 30.527344 C 86.476562 29.035156 88.1875 27.585938 89.945312 26.1875 C 91.699219 24.785156 93.492188 23.4375 95.320312 22.136719 C 97.152344 20.839844 99.015625 19.59375 100.917969 18.398438 C 102.816406 17.203125 104.75 16.0625 106.714844 14.976562 C 108.679688 13.890625 110.671875 12.863281 112.695312 11.886719 C 114.714844 10.914062 116.765625 9.996094 118.839844 9.136719 C 120.910156 8.28125 123.007812 7.480469 125.125 6.738281 C 127.246094 5.996094 129.382812 5.316406 131.539062 4.691406 C 133.695312 4.070312 135.867188 3.511719 138.054688 3.011719 C 140.246094 2.511719 142.445312 2.074219 144.65625 1.699219 C 146.871094 1.320312 149.09375 1.007812 151.324219 0.753906 C 153.554688 0.503906 155.789062 0.316406 158.03125 0.1875 C 160.269531 0.0625 162.511719 0 164.757812 0 L 164.765625 60 C 163.640625 60 162.519531 60.03125 161.398438 60.09375 C 160.28125 60.15625 159.160156 60.253906 158.046875 60.378906 C 156.929688 60.503906 155.820312 60.660156 154.714844 60.847656 C 153.609375 61.035156 152.507812 61.253906 151.414062 61.503906 C 150.320312 61.753906 149.234375 62.035156 148.15625 62.347656 C 147.078125 62.65625 146.007812 62.996094 144.949219 63.367188 C 143.890625 63.738281 142.839844 64.140625 141.804688 64.570312 C 140.765625 65 139.742188 65.457031 138.730469 65.945312 C 137.722656 66.429688 136.722656 66.945312 135.742188 67.488281 C 134.761719 68.03125 133.792969 68.601562 132.84375 69.199219 C 131.894531 69.796875 130.960938 70.417969 130.046875 71.070312 C 129.128906 71.71875 128.234375 72.394531 127.355469 73.09375 C 126.480469 73.792969 125.621094 74.515625 124.785156 75.265625 C 123.949219 76.011719 123.132812 76.785156 122.339844 77.578125 C 121.546875 78.371094 120.777344 79.1875 120.027344 80.023438 C 119.28125 80.859375 118.558594 81.714844 117.855469 82.59375 C 117.15625 83.472656 116.484375 84.367188 115.832031 85.285156 C 115.183594 86.199219 114.5625 87.132812 113.964844 88.082031 C 113.367188 89.03125 112.796875 90 112.253906 90.980469 C 111.710938 91.960938 111.195312 92.960938 110.710938 93.96875 C 110.222656 94.980469 109.765625 96.003906 109.335938 97.042969 C 108.90625 98.078125 108.507812 99.128906 108.136719 100.1875 C 107.765625 101.246094 107.425781 102.316406 107.113281 103.394531 C 106.804688 104.472656 106.523438 105.558594 106.273438 106.652344 C 106.023438 107.746094 105.804688 108.847656 105.617188 109.953125 C 105.429688 111.058594 105.273438 112.171875 105.148438 113.285156 C 105.019531 114.402344 104.925781 115.519531 104.863281 116.640625 C 104.800781 117.757812 104.769531 118.882812 104.769531 120.003906 C 104.769531 121.125 104.800781 122.246094 104.863281 123.367188 C 104.925781 124.488281 105.023438 125.605469 105.148438 126.722656 C 105.273438 127.835938 105.429688 128.945312 105.617188 130.054688 C 105.804688 131.160156 106.023438 132.261719 106.273438 133.355469 C 106.523438 134.449219 106.804688 135.535156 107.117188 136.613281 C 107.425781 137.691406 107.765625 138.761719 108.136719 139.820312 C 108.507812 140.878906 108.910156 141.925781 109.339844 142.964844 C 109.769531 144 110.226562 145.023438 110.714844 146.035156 C 111.199219 147.046875 111.714844 148.042969 112.257812 149.023438 C 112.800781 150.007812 113.371094 150.972656 113.96875 151.925781 C 114.566406 152.875 115.1875 153.808594 115.835938 154.722656 C 116.488281 155.636719 117.160156 156.535156 117.863281 157.410156 C 118.5625 158.289062 119.285156 159.144531 120.03125 159.980469 C 120.78125 160.820312 121.550781 161.632812 122.34375 162.429688 C 123.136719 163.222656 123.953125 163.992188 124.789062 164.738281 C 125.628906 165.488281 126.484375 166.210938 127.363281 166.910156 C 128.238281 167.609375 129.136719 168.285156 130.050781 168.933594 C 130.964844 169.585938 131.898438 170.207031 132.847656 170.804688 C 133.800781 171.402344 134.765625 171.972656 135.75 172.515625 C 136.730469 173.058594 137.726562 173.570312 138.738281 174.058594 C 139.75 174.546875 140.773438 175.003906 141.808594 175.433594 C 142.847656 175.863281 143.894531 176.261719 144.953125 176.632812 C 146.015625 177.003906 147.082031 177.34375 148.160156 177.65625 C 149.238281 177.964844 150.324219 178.246094 151.417969 178.496094 C 152.515625 178.746094 153.613281 178.964844 154.71875 179.152344 C 155.828125 179.339844 156.9375 179.496094 158.054688 179.621094 C 159.167969 179.75 160.285156 179.84375 161.40625 179.90625 C 162.527344 179.96875 163.648438 180 164.769531 180 C 165.894531 180 167.015625 179.96875 168.136719 179.90625 C 169.253906 179.84375 170.375 179.75 171.488281 179.621094 C 172.605469 179.496094 173.714844 179.339844 174.820312 179.152344 C 175.925781 178.964844 177.027344 178.746094 178.121094 178.496094 C 179.214844 178.246094 180.300781 177.964844 181.378906 177.65625 C 182.457031 177.34375 183.527344 177.003906 184.585938 176.632812 C 185.644531 176.261719 186.695312 175.863281 187.730469 175.433594 C 188.769531 175.003906 189.792969 174.546875 190.804688 174.058594 Z M 216.835938 228.117188 " fill-opacity="1" fill-rule="nonzero"/><g fill="#000000" fill-opacity="1"><g transform="translate(0.848177, 149.332022)"><g><path d="M 4.734375 0.125 C 3.984375 0.125 3.316406 -0.046875 2.734375 -0.390625 C 2.148438 -0.734375 1.691406 -1.234375 1.359375 -1.890625 C 1.023438 -2.554688 0.859375 -3.351562 0.859375 -4.28125 C 0.859375 -5.207031 1.023438 -6 1.359375 -6.65625 C 1.691406 -7.320312 2.148438 -7.828125 2.734375 -8.171875 C 3.316406 -8.515625 3.984375 -8.6875 4.734375 -8.6875 C 5.535156 -8.6875 6.203125 -8.535156 6.734375 -8.234375 C 7.265625 -7.929688 7.644531 -7.476562 7.875 -6.875 L 7.234375 -6.4375 L 7.09375 -6.4375 C 6.851562 -6.925781 6.546875 -7.269531 6.171875 -7.46875 C 5.796875 -7.675781 5.316406 -7.78125 4.734375 -7.78125 C 4.191406 -7.78125 3.710938 -7.660156 3.296875 -7.421875 C 2.878906 -7.179688 2.546875 -6.800781 2.296875 -6.28125 C 2.054688 -5.757812 1.9375 -5.09375 1.9375 -4.28125 C 1.9375 -3.46875 2.054688 -2.800781 2.296875 -2.28125 C 2.546875 -1.757812 2.878906 -1.378906 3.296875 -1.140625 C 3.710938 -0.898438 4.191406 -0.78125 4.734375 -0.78125 C 5.359375 -0.78125 5.863281 -0.921875 6.25 -1.203125 C 6.644531 -1.484375 6.941406 -1.9375 7.140625 -2.5625 L 7.28125 -2.5625 L 7.953125 -2.234375 C 7.753906 -1.472656 7.378906 -0.890625 6.828125 -0.484375 C 6.273438 -0.078125 5.578125 0.125 4.734375 0.125 Z M 4.734375 0.125 "/></g></g><g transform="translate(9.250521, 149.332022)"><g><path d="M 2.578125 0.125 C 2.117188 0.125 1.757812 -0.00390625 1.5 -0.265625 C 1.238281 -0.523438 1.109375 -0.914062 1.109375 -1.4375 L 1.109375 -9.0625 L 2.0625 -9.0625 L 2.0625 -1.5 C 2.0625 -1.226562 2.113281 -1.03125 2.21875 -0.90625 C 2.320312 -0.789062 2.484375 -0.734375 2.703125 -0.734375 C 2.828125 -0.734375 2.957031 -0.753906 3.09375 -0.796875 L 3.1875 -0.78125 L 3.296875 -0.03125 C 3.222656 0.0195312 3.117188 0.0546875 2.984375 0.078125 C 2.859375 0.109375 2.722656 0.125 2.578125 0.125 Z M 2.578125 0.125 "/></g></g><g transform="translate(12.766145, 149.332022)"><g><path d="M 3.703125 0.125 C 3.097656 0.125 2.566406 -0.00390625 2.109375 -0.265625 C 1.660156 -0.523438 1.3125 -0.90625 1.0625 -1.40625 C 0.820312 -1.90625 0.703125 -2.515625 0.703125 -3.234375 C 0.703125 -3.941406 0.820312 -4.546875 1.0625 -5.046875 C 1.3125 -5.554688 1.660156 -5.941406 2.109375 -6.203125 C 2.566406 -6.460938 3.097656 -6.59375 3.703125 -6.59375 C 4.316406 -6.59375 4.847656 -6.460938 5.296875 -6.203125 C 5.753906 -5.941406 6.101562 -5.554688 6.34375 -5.046875 C 6.582031 -4.546875 6.703125 -3.941406 6.703125 -3.234375 C 6.703125 -2.515625 6.582031 -1.90625 6.34375 -1.40625 C 6.101562 -0.90625 5.753906 -0.523438 5.296875 -0.265625 C 4.847656 -0.00390625 4.316406 0.125 3.703125 0.125 Z M 3.703125 -0.734375 C 4.347656 -0.734375 4.84375 -0.9375 5.1875 -1.34375 C 5.53125 -1.75 5.703125 -2.378906 5.703125 -3.234375 C 5.703125 -4.085938 5.53125 -4.71875 5.1875 -5.125 C 4.84375 -5.53125 4.347656 -5.734375 3.703125 -5.734375 C 3.066406 -5.734375 2.578125 -5.523438 2.234375 -5.109375 C 1.890625 -4.703125 1.71875 -4.078125 1.71875 -3.234375 C 1.71875 -2.378906 1.890625 -1.75 2.234375 -1.34375 C 2.578125 -0.9375 3.066406 -0.734375 3.703125 -0.734375 Z M 3.703125 -0.734375 "/></g></g><g transform="translate(20.184114, 149.332022)"><g><path d="M 2.953125 0.125 C 2.546875 0.125 2.164062 0.0703125 1.8125 -0.03125 C 1.46875 -0.144531 1.175781 -0.296875 0.9375 -0.484375 C 0.707031 -0.671875 0.539062 -0.878906 0.4375 -1.109375 L 1 -1.703125 L 1.125 -1.703125 C 1.332031 -1.378906 1.582031 -1.132812 1.875 -0.96875 C 2.175781 -0.8125 2.535156 -0.734375 2.953125 -0.734375 C 3.421875 -0.734375 3.78125 -0.828125 4.03125 -1.015625 C 4.28125 -1.203125 4.40625 -1.457031 4.40625 -1.78125 C 4.40625 -2.039062 4.328125 -2.253906 4.171875 -2.421875 C 4.023438 -2.585938 3.785156 -2.710938 3.453125 -2.796875 L 2.359375 -3.0625 C 1.773438 -3.195312 1.347656 -3.414062 1.078125 -3.71875 C 0.816406 -4.03125 0.6875 -4.410156 0.6875 -4.859375 C 0.6875 -5.210938 0.773438 -5.519531 0.953125 -5.78125 C 1.128906 -6.039062 1.382812 -6.238281 1.71875 -6.375 C 2.0625 -6.519531 2.46875 -6.59375 2.9375 -6.59375 C 3.53125 -6.59375 4 -6.507812 4.34375 -6.34375 C 4.6875 -6.175781 4.953125 -5.941406 5.140625 -5.640625 L 4.59375 -5.109375 L 4.484375 -5.109375 C 4.273438 -5.347656 4.046875 -5.519531 3.796875 -5.625 C 3.554688 -5.738281 3.269531 -5.796875 2.9375 -5.796875 C 2.507812 -5.796875 2.179688 -5.71875 1.953125 -5.5625 C 1.734375 -5.40625 1.625 -5.1875 1.625 -4.90625 C 1.625 -4.632812 1.703125 -4.421875 1.859375 -4.265625 C 2.015625 -4.109375 2.296875 -3.976562 2.703125 -3.875 L 3.765625 -3.625 C 4.328125 -3.488281 4.734375 -3.265625 4.984375 -2.953125 C 5.234375 -2.648438 5.359375 -2.265625 5.359375 -1.796875 C 5.359375 -1.421875 5.269531 -1.085938 5.09375 -0.796875 C 4.914062 -0.503906 4.644531 -0.273438 4.28125 -0.109375 C 3.914062 0.046875 3.472656 0.125 2.953125 0.125 Z M 2.953125 0.125 "/></g></g><g transform="translate(26.160676, 149.332022)"><g><path d="M 6.15625 -3.015625 L 1.71875 -3.015625 C 1.75 -2.222656 1.9375 -1.644531 2.28125 -1.28125 C 2.632812 -0.914062 3.113281 -0.734375 3.71875 -0.734375 C 4.175781 -0.734375 4.546875 -0.8125 4.828125 -0.96875 C 5.109375 -1.132812 5.332031 -1.394531 5.5 -1.75 L 5.625 -1.75 L 6.234375 -1.390625 C 6.046875 -0.921875 5.742188 -0.550781 5.328125 -0.28125 C 4.921875 -0.0078125 4.382812 0.125 3.71875 0.125 C 3.09375 0.125 2.554688 0.00390625 2.109375 -0.234375 C 1.660156 -0.484375 1.3125 -0.859375 1.0625 -1.359375 C 0.820312 -1.859375 0.703125 -2.484375 0.703125 -3.234375 C 0.703125 -3.960938 0.832031 -4.578125 1.09375 -5.078125 C 1.351562 -5.585938 1.703125 -5.96875 2.140625 -6.21875 C 2.585938 -6.46875 3.09375 -6.59375 3.65625 -6.59375 C 4.488281 -6.59375 5.132812 -6.359375 5.59375 -5.890625 C 6.0625 -5.421875 6.300781 -4.726562 6.3125 -3.8125 C 6.3125 -3.445312 6.300781 -3.203125 6.28125 -3.078125 Z M 5.359375 -3.8125 C 5.347656 -4.5 5.195312 -5 4.90625 -5.3125 C 4.613281 -5.625 4.195312 -5.78125 3.65625 -5.78125 C 3.09375 -5.78125 2.648438 -5.617188 2.328125 -5.296875 C 2.003906 -4.984375 1.804688 -4.488281 1.734375 -3.8125 Z M 5.359375 -3.8125 "/></g></g><g transform="translate(33.0513, 149.332022)"><g><path d="M 3.359375 0.125 C 2.835938 0.125 2.378906 0 1.984375 -0.25 C 1.585938 -0.5 1.273438 -0.875 1.046875 -1.375 C 0.816406 -1.875 0.703125 -2.492188 0.703125 -3.234375 C 0.703125 -3.972656 0.816406 -4.59375 1.046875 -5.09375 C 1.285156 -5.59375 1.613281 -5.96875 2.03125 -6.21875 C 2.445312 -6.46875 2.925781 -6.59375 3.46875 -6.59375 C 3.894531 -6.59375 4.28125 -6.507812 4.625 -6.34375 C 4.96875 -6.175781 5.265625 -5.910156 5.515625 -5.546875 L 5.625 -5.5625 L 5.625 -9.0625 L 6.59375 -9.0625 L 6.59375 0 L 5.625 0 L 5.625 -0.9375 L 5.515625 -0.96875 C 5.296875 -0.644531 5.003906 -0.378906 4.640625 -0.171875 C 4.285156 0.0234375 3.859375 0.125 3.359375 0.125 Z M 3.65625 -0.734375 C 4.25 -0.734375 4.722656 -0.9375 5.078125 -1.34375 C 5.441406 -1.757812 5.625 -2.390625 5.625 -3.234375 C 5.625 -4.078125 5.441406 -4.703125 5.078125 -5.109375 C 4.722656 -5.523438 4.25 -5.734375 3.65625 -5.734375 C 3.03125 -5.734375 2.550781 -5.53125 2.21875 -5.125 C 1.882812 -4.726562 1.71875 -4.097656 1.71875 -3.234375 C 1.71875 -1.566406 2.363281 -0.734375 3.65625 -0.734375 Z M 3.65625 -0.734375 "/></g></g></g><g fill="#000000" fill-opacity="1"><g transform="translate(6.03958, 165.374989)"><g><path d="M 3.53125 0.125 C 2.726562 0.125 2.085938 -0.0507812 1.609375 -0.40625 C 1.128906 -0.757812 0.816406 -1.265625 0.671875 -1.921875 L 1.421875 -2.265625 L 1.546875 -2.234375 C 1.648438 -1.898438 1.78125 -1.628906 1.9375 -1.421875 C 2.09375 -1.210938 2.300781 -1.050781 2.5625 -0.9375 C 2.820312 -0.832031 3.144531 -0.78125 3.53125 -0.78125 C 4.101562 -0.78125 4.550781 -0.953125 4.875 -1.296875 C 5.195312 -1.648438 5.359375 -2.15625 5.359375 -2.8125 C 5.359375 -3.488281 5.195312 -4 4.875 -4.34375 C 4.5625 -4.695312 4.128906 -4.875 3.578125 -4.875 C 3.148438 -4.875 2.800781 -4.785156 2.53125 -4.609375 C 2.269531 -4.441406 2.035156 -4.179688 1.828125 -3.828125 L 1.03125 -3.890625 L 1.1875 -8.5625 L 5.984375 -8.5625 L 5.984375 -7.71875 L 2.0625 -7.71875 L 1.96875 -4.875 L 2.09375 -4.84375 C 2.289062 -5.144531 2.535156 -5.367188 2.828125 -5.515625 C 3.117188 -5.660156 3.46875 -5.734375 3.875 -5.734375 C 4.382812 -5.734375 4.832031 -5.617188 5.21875 -5.390625 C 5.601562 -5.160156 5.898438 -4.828125 6.109375 -4.390625 C 6.316406 -3.953125 6.421875 -3.425781 6.421875 -2.8125 C 6.421875 -2.207031 6.300781 -1.679688 6.0625 -1.234375 C 5.820312 -0.796875 5.484375 -0.457031 5.046875 -0.21875 C 4.609375 0.0078125 4.101562 0.125 3.53125 0.125 Z M 3.53125 0.125 "/></g></g></g><g fill="#000000" fill-opacity="1"><g transform="translate(12.789579, 165.374989)"><g><path d="M 2.328125 0 L 1.34375 0 L 4.53125 -7.59375 L 4.5 -7.71875 L 0.3125 -7.71875 L 0.3125 -8.5625 L 5.546875 -8.5625 L 5.546875 -7.640625 Z M 2.328125 0 "/></g></g></g><g fill="#000000" fill-opacity="1"><g transform="translate(17.383329, 165.374989)"><g><path d="M 1.578125 0.0625 C 1.359375 0.0625 1.179688 0 1.046875 -0.125 C 0.921875 -0.25 0.859375 -0.414062 0.859375 -0.625 C 0.859375 -0.832031 0.921875 -1 1.046875 -1.125 C 1.179688 -1.257812 1.359375 -1.328125 1.578125 -1.328125 C 1.804688 -1.328125 1.984375 -1.265625 2.109375 -1.140625 C 2.234375 -1.015625 2.296875 -0.847656 2.296875 -0.640625 C 2.296875 -0.429688 2.226562 -0.257812 2.09375 -0.125 C 1.96875 0 1.796875 0.0625 1.578125 0.0625 Z M 1.578125 0.0625 "/></g></g><g transform="translate(20.541532, 165.374989)"><g><path d="M 0.609375 0 L 0.609375 -0.828125 L 2.953125 -0.828125 L 2.953125 -7.390625 L 2.8125 -7.421875 C 2.4375 -7.234375 2.101562 -7.085938 1.8125 -6.984375 C 1.53125 -6.890625 1.164062 -6.796875 0.71875 -6.703125 L 0.71875 -7.625 C 1.164062 -7.71875 1.601562 -7.84375 2.03125 -8 C 2.457031 -8.164062 2.847656 -8.351562 3.203125 -8.5625 L 3.9375 -8.5625 L 3.9375 -0.828125 L 6.03125 -0.828125 L 6.03125 0 Z M 0.609375 0 "/></g></g></g><g fill="#000000" fill-opacity="1"><g transform="translate(26.195828, 165.374989)"><g><path d="M 2.4375 -3.921875 C 2.050781 -3.921875 1.710938 -4.003906 1.421875 -4.171875 C 1.128906 -4.347656 0.898438 -4.613281 0.734375 -4.96875 C 0.578125 -5.320312 0.5 -5.769531 0.5 -6.3125 C 0.5 -7.101562 0.671875 -7.695312 1.015625 -8.09375 C 1.367188 -8.488281 1.84375 -8.6875 2.4375 -8.6875 C 2.820312 -8.6875 3.15625 -8.601562 3.4375 -8.4375 C 3.726562 -8.269531 3.957031 -8.003906 4.125 -7.640625 C 4.289062 -7.285156 4.375 -6.84375 4.375 -6.3125 C 4.375 -5.769531 4.289062 -5.320312 4.125 -4.96875 C 3.957031 -4.613281 3.726562 -4.347656 3.4375 -4.171875 C 3.15625 -4.003906 2.820312 -3.921875 2.4375 -3.921875 Z M 2.625 0 L 1.78125 0 L 1.75 -0.125 L 7.484375 -8.5625 L 8.34375 -8.5625 L 8.359375 -8.4375 Z M 2.4375 -4.65625 C 2.800781 -4.65625 3.070312 -4.78125 3.25 -5.03125 C 3.425781 -5.28125 3.515625 -5.707031 3.515625 -6.3125 C 3.515625 -6.90625 3.425781 -7.328125 3.25 -7.578125 C 3.070312 -7.828125 2.800781 -7.953125 2.4375 -7.953125 C 2.1875 -7.953125 1.984375 -7.898438 1.828125 -7.796875 C 1.671875 -7.691406 1.550781 -7.519531 1.46875 -7.28125 C 1.382812 -7.039062 1.34375 -6.71875 1.34375 -6.3125 C 1.34375 -5.90625 1.382812 -5.578125 1.46875 -5.328125 C 1.550781 -5.085938 1.671875 -4.914062 1.828125 -4.8125 C 1.984375 -4.707031 2.1875 -4.65625 2.4375 -4.65625 Z M 7.703125 0.125 C 7.109375 0.125 6.632812 -0.0703125 6.28125 -0.46875 C 5.925781 -0.863281 5.75 -1.460938 5.75 -2.265625 C 5.75 -3.066406 5.925781 -3.664062 6.28125 -4.0625 C 6.632812 -4.457031 7.109375 -4.65625 7.703125 -4.65625 C 8.085938 -4.65625 8.421875 -4.566406 8.703125 -4.390625 C 8.992188 -4.222656 9.222656 -3.960938 9.390625 -3.609375 C 9.554688 -3.253906 9.640625 -2.804688 9.640625 -2.265625 C 9.640625 -1.722656 9.554688 -1.273438 9.390625 -0.921875 C 9.222656 -0.566406 8.992188 -0.300781 8.703125 -0.125 C 8.421875 0.0390625 8.085938 0.125 7.703125 0.125 Z M 7.703125 -0.609375 C 8.066406 -0.609375 8.335938 -0.734375 8.515625 -0.984375 C 8.691406 -1.234375 8.78125 -1.660156 8.78125 -2.265625 C 8.78125 -2.859375 8.691406 -3.28125 8.515625 -3.53125 C 8.335938 -3.789062 8.066406 -3.921875 7.703125 -3.921875 C 7.328125 -3.921875 7.050781 -3.796875 6.875 -3.546875 C 6.695312 -3.296875 6.609375 -2.867188 6.609375 -2.265625 C 6.609375 -1.660156 6.695312 -1.234375 6.875 -0.984375 C 7.050781 -0.734375 7.328125 -0.609375 7.703125 -0.609375 Z M 7.703125 -0.609375 "/></g></g></g><g fill="#000000" fill-opacity="1"><g transform="translate(289.77394, 83.789057)"><g><path d="M 7.71875 0 L 6.640625 0 L 5.84375 -2.34375 L 2.1875 -2.34375 L 1.390625 0 L 0.34375 0 L 3.328125 -8.5625 L 4.71875 -8.5625 Z M 3.9375 -7.53125 L 2.46875 -3.1875 L 5.5625 -3.1875 L 4.09375 -7.53125 Z M 3.9375 -7.53125 "/></g></g><g transform="translate(297.824721, 83.789057)"><g><path d="M 3.703125 0.125 C 3.140625 0.125 2.628906 -0.00390625 2.171875 -0.265625 C 1.722656 -0.523438 1.363281 -0.90625 1.09375 -1.40625 C 0.832031 -1.914062 0.703125 -2.523438 0.703125 -3.234375 C 0.703125 -3.941406 0.832031 -4.546875 1.09375 -5.046875 C 1.363281 -5.554688 1.722656 -5.941406 2.171875 -6.203125 C 2.628906 -6.460938 3.140625 -6.59375 3.703125 -6.59375 C 4.390625 -6.59375 4.9375 -6.460938 5.34375 -6.203125 C 5.75 -5.941406 6.039062 -5.597656 6.21875 -5.171875 L 5.5625 -4.703125 L 5.453125 -4.703125 C 5.273438 -5.054688 5.046875 -5.316406 4.765625 -5.484375 C 4.492188 -5.648438 4.140625 -5.734375 3.703125 -5.734375 C 3.304688 -5.734375 2.957031 -5.640625 2.65625 -5.453125 C 2.351562 -5.265625 2.117188 -4.984375 1.953125 -4.609375 C 1.796875 -4.234375 1.71875 -3.773438 1.71875 -3.234375 C 1.71875 -2.691406 1.800781 -2.234375 1.96875 -1.859375 C 2.132812 -1.484375 2.363281 -1.203125 2.65625 -1.015625 C 2.957031 -0.828125 3.304688 -0.734375 3.703125 -0.734375 C 4.160156 -0.734375 4.535156 -0.832031 4.828125 -1.03125 C 5.117188 -1.238281 5.347656 -1.5625 5.515625 -2 L 5.640625 -2 L 6.265625 -1.625 C 6.097656 -1.082031 5.796875 -0.65625 5.359375 -0.34375 C 4.929688 -0.03125 4.378906 0.125 3.703125 0.125 Z M 3.703125 0.125 "/></g></g><g transform="translate(304.48683, 83.789057)"><g><path d="M 4.375 -1.03125 L 4.671875 -0.34375 C 4.523438 -0.1875 4.328125 -0.0703125 4.078125 0 C 3.828125 0.0820312 3.554688 0.125 3.265625 0.125 C 2.035156 0.125 1.421875 -0.5 1.421875 -1.75 L 1.421875 -5.6875 L 0.296875 -5.6875 L 0.296875 -6.46875 L 1.421875 -6.46875 L 1.421875 -7.828125 L 2.375 -8 L 2.375 -6.46875 L 4.453125 -6.46875 L 4.453125 -5.6875 L 2.375 -5.6875 L 2.375 -1.84375 C 2.375 -1.101562 2.695312 -0.734375 3.34375 -0.734375 C 3.695312 -0.734375 4 -0.832031 4.25 -1.03125 Z M 4.375 -1.03125 "/></g></g><g transform="translate(309.408705, 83.789057)"><g><path d="M 1.609375 -7.71875 C 1.398438 -7.71875 1.234375 -7.78125 1.109375 -7.90625 C 0.984375 -8.03125 0.921875 -8.191406 0.921875 -8.390625 C 0.921875 -8.578125 0.984375 -8.734375 1.109375 -8.859375 C 1.234375 -8.992188 1.398438 -9.0625 1.609375 -9.0625 C 1.804688 -9.0625 1.96875 -8.992188 2.09375 -8.859375 C 2.226562 -8.734375 2.296875 -8.578125 2.296875 -8.390625 C 2.296875 -8.191406 2.226562 -8.03125 2.09375 -7.90625 C 1.96875 -7.78125 1.804688 -7.71875 1.609375 -7.71875 Z M 1.125 0 L 1.125 -6.46875 L 2.078125 -6.46875 L 2.078125 0 Z M 1.125 0 "/></g></g><g transform="translate(312.613782, 83.789057)"><g><path d="M 4.09375 0 L 2.78125 0 L 0.3125 -6.46875 L 1.34375 -6.46875 L 3.375 -1.09375 L 3.515625 -1.09375 L 5.53125 -6.46875 L 6.546875 -6.46875 Z M 4.09375 0 "/></g></g></g><g fill="#000000" fill-opacity="1"><g transform="translate(319.340345, 83.789057)"><g><path d="M 6.15625 -3.015625 L 1.71875 -3.015625 C 1.75 -2.222656 1.9375 -1.644531 2.28125 -1.28125 C 2.632812 -0.914062 3.113281 -0.734375 3.71875 -0.734375 C 4.175781 -0.734375 4.546875 -0.8125 4.828125 -0.96875 C 5.109375 -1.132812 5.332031 -1.394531 5.5 -1.75 L 5.625 -1.75 L 6.234375 -1.390625 C 6.046875 -0.921875 5.742188 -0.550781 5.328125 -0.28125 C 4.921875 -0.0078125 4.382812 0.125 3.71875 0.125 C 3.09375 0.125 2.554688 0.00390625 2.109375 -0.234375 C 1.660156 -0.484375 1.3125 -0.859375 1.0625 -1.359375 C 0.820312 -1.859375 0.703125 -2.484375 0.703125 -3.234375 C 0.703125 -3.960938 0.832031 -4.578125 1.09375 -5.078125 C 1.351562 -5.585938 1.703125 -5.96875 2.140625 -6.21875 C 2.585938 -6.46875 3.09375 -6.59375 3.65625 -6.59375 C 4.488281 -6.59375 5.132812 -6.359375 5.59375 -5.890625 C 6.0625 -5.421875 6.300781 -4.726562 6.3125 -3.8125 C 6.3125 -3.445312 6.300781 -3.203125 6.28125 -3.078125 Z M 5.359375 -3.8125 C 5.347656 -4.5 5.195312 -5 4.90625 -5.3125 C 4.613281 -5.625 4.195312 -5.78125 3.65625 -5.78125 C 3.09375 -5.78125 2.648438 -5.617188 2.328125 -5.296875 C 2.003906 -4.984375 1.804688 -4.488281 1.734375 -3.8125 Z M 5.359375 -3.8125 "/></g></g></g><g fill="#000000" fill-opacity="1"><g transform="translate(291.063006, 99.832025)"><g><path d="M 5.359375 0 L 4.40625 0 L 4.40625 -2.046875 L 0.390625 -2.046875 L 0.390625 -2.859375 L 4.171875 -8.5625 L 5.359375 -8.5625 L 5.359375 -2.859375 L 6.84375 -2.859375 L 6.84375 -2.046875 L 5.359375 -2.046875 Z M 1.578125 -2.984375 L 1.625 -2.859375 L 4.40625 -2.859375 L 4.40625 -7.171875 L 4.265625 -7.203125 Z M 1.578125 -2.984375 "/></g></g><g transform="translate(298.322772, 99.832025)"><g><path d="M 0.515625 -0.390625 C 0.515625 -0.867188 0.566406 -1.25 0.671875 -1.53125 C 0.773438 -1.820312 0.953125 -2.09375 1.203125 -2.34375 C 1.453125 -2.59375 1.847656 -2.914062 2.390625 -3.3125 L 3.34375 -4 C 3.6875 -4.257812 3.96875 -4.492188 4.1875 -4.703125 C 4.40625 -4.921875 4.578125 -5.15625 4.703125 -5.40625 C 4.835938 -5.65625 4.90625 -5.9375 4.90625 -6.25 C 4.90625 -6.757812 4.769531 -7.140625 4.5 -7.390625 C 4.226562 -7.648438 3.804688 -7.78125 3.234375 -7.78125 C 2.773438 -7.78125 2.367188 -7.675781 2.015625 -7.46875 C 1.671875 -7.257812 1.390625 -6.960938 1.171875 -6.578125 L 1.046875 -6.546875 L 0.4375 -7.1875 C 0.726562 -7.65625 1.109375 -8.019531 1.578125 -8.28125 C 2.046875 -8.550781 2.597656 -8.6875 3.234375 -8.6875 C 3.835938 -8.6875 4.335938 -8.582031 4.734375 -8.375 C 5.140625 -8.164062 5.4375 -7.878906 5.625 -7.515625 C 5.820312 -7.148438 5.921875 -6.726562 5.921875 -6.25 C 5.921875 -5.863281 5.835938 -5.503906 5.671875 -5.171875 C 5.515625 -4.847656 5.289062 -4.535156 5 -4.234375 C 4.707031 -3.941406 4.34375 -3.632812 3.90625 -3.3125 L 2.953125 -2.625 C 2.597656 -2.363281 2.320312 -2.140625 2.125 -1.953125 C 1.9375 -1.765625 1.796875 -1.582031 1.703125 -1.40625 C 1.617188 -1.238281 1.578125 -1.046875 1.578125 -0.828125 L 5.921875 -0.828125 L 5.921875 0 L 0.515625 0 Z M 0.515625 -0.390625 "/></g></g><g transform="translate(304.908709, 99.832025)"><g><path d="M 1.578125 0.0625 C 1.359375 0.0625 1.179688 0 1.046875 -0.125 C 0.921875 -0.25 0.859375 -0.414062 0.859375 -0.625 C 0.859375 -0.832031 0.921875 -1 1.046875 -1.125 C 1.179688 -1.257812 1.359375 -1.328125 1.578125 -1.328125 C 1.804688 -1.328125 1.984375 -1.265625 2.109375 -1.140625 C 2.234375 -1.015625 2.296875 -0.847656 2.296875 -0.640625 C 2.296875 -0.429688 2.226562 -0.257812 2.09375 -0.125 C 1.96875 0 1.796875 0.0625 1.578125 0.0625 Z M 1.578125 0.0625 "/></g></g></g><g fill="#000000" fill-opacity="1"><g transform="translate(307.844255, 99.832025)"><g><path d="M 3.625 0.125 C 2.882812 0.125 2.28125 -0.0390625 1.8125 -0.375 C 1.351562 -0.71875 1.0625 -1.1875 0.9375 -1.78125 L 1.671875 -2.109375 L 1.8125 -2.09375 C 1.945312 -1.65625 2.15625 -1.328125 2.4375 -1.109375 C 2.71875 -0.890625 3.113281 -0.78125 3.625 -0.78125 C 4.332031 -0.78125 4.875 -1.078125 5.25 -1.671875 C 5.625 -2.265625 5.8125 -3.1875 5.8125 -4.4375 L 5.6875 -4.46875 C 5.445312 -3.976562 5.144531 -3.613281 4.78125 -3.375 C 4.414062 -3.132812 3.953125 -3.015625 3.390625 -3.015625 C 2.859375 -3.015625 2.394531 -3.128906 2 -3.359375 C 1.601562 -3.585938 1.296875 -3.914062 1.078125 -4.34375 C 0.867188 -4.769531 0.765625 -5.269531 0.765625 -5.84375 C 0.765625 -6.40625 0.878906 -6.898438 1.109375 -7.328125 C 1.347656 -7.765625 1.679688 -8.097656 2.109375 -8.328125 C 2.546875 -8.566406 3.050781 -8.6875 3.625 -8.6875 C 4.625 -8.6875 5.40625 -8.347656 5.96875 -7.671875 C 6.539062 -6.992188 6.828125 -5.898438 6.828125 -4.390625 C 6.828125 -3.359375 6.691406 -2.503906 6.421875 -1.828125 C 6.160156 -1.160156 5.789062 -0.664062 5.3125 -0.34375 C 4.832031 -0.03125 4.269531 0.125 3.625 0.125 Z M 3.625 -3.890625 C 4.007812 -3.890625 4.34375 -3.960938 4.625 -4.109375 C 4.914062 -4.265625 5.132812 -4.488281 5.28125 -4.78125 C 5.4375 -5.082031 5.515625 -5.4375 5.515625 -5.84375 C 5.515625 -6.25 5.4375 -6.597656 5.28125 -6.890625 C 5.132812 -7.179688 4.914062 -7.398438 4.625 -7.546875 C 4.34375 -7.703125 4.007812 -7.78125 3.625 -7.78125 C 3.050781 -7.78125 2.601562 -7.613281 2.28125 -7.28125 C 1.96875 -6.945312 1.8125 -6.46875 1.8125 -5.84375 C 1.8125 -5.207031 1.96875 -4.722656 2.28125 -4.390625 C 2.601562 -4.054688 3.050781 -3.890625 3.625 -3.890625 Z M 3.625 -3.890625 "/></g></g><g transform="translate(315.555192, 99.832025)"><g><path d="M 2.4375 -3.921875 C 2.050781 -3.921875 1.710938 -4.003906 1.421875 -4.171875 C 1.128906 -4.347656 0.898438 -4.613281 0.734375 -4.96875 C 0.578125 -5.320312 0.5 -5.769531 0.5 -6.3125 C 0.5 -7.101562 0.671875 -7.695312 1.015625 -8.09375 C 1.367188 -8.488281 1.84375 -8.6875 2.4375 -8.6875 C 2.820312 -8.6875 3.15625 -8.601562 3.4375 -8.4375 C 3.726562 -8.269531 3.957031 -8.003906 4.125 -7.640625 C 4.289062 -7.285156 4.375 -6.84375 4.375 -6.3125 C 4.375 -5.769531 4.289062 -5.320312 4.125 -4.96875 C 3.957031 -4.613281 3.726562 -4.347656 3.4375 -4.171875 C 3.15625 -4.003906 2.820312 -3.921875 2.4375 -3.921875 Z M 2.625 0 L 1.78125 0 L 1.75 -0.125 L 7.484375 -8.5625 L 8.34375 -8.5625 L 8.359375 -8.4375 Z M 2.4375 -4.65625 C 2.800781 -4.65625 3.070312 -4.78125 3.25 -5.03125 C 3.425781 -5.28125 3.515625 -5.707031 3.515625 -6.3125 C 3.515625 -6.90625 3.425781 -7.328125 3.25 -7.578125 C 3.070312 -7.828125 2.800781 -7.953125 2.4375 -7.953125 C 2.1875 -7.953125 1.984375 -7.898438 1.828125 -7.796875 C 1.671875 -7.691406 1.550781 -7.519531 1.46875 -7.28125 C 1.382812 -7.039062 1.34375 -6.71875 1.34375 -6.3125 C 1.34375 -5.90625 1.382812 -5.578125 1.46875 -5.328125 C 1.550781 -5.085938 1.671875 -4.914062 1.828125 -4.8125 C 1.984375 -4.707031 2.1875 -4.65625 2.4375 -4.65625 Z M 7.703125 0.125 C 7.109375 0.125 6.632812 -0.0703125 6.28125 -0.46875 C 5.925781 -0.863281 5.75 -1.460938 5.75 -2.265625 C 5.75 -3.066406 5.925781 -3.664062 6.28125 -4.0625 C 6.632812 -4.457031 7.109375 -4.65625 7.703125 -4.65625 C 8.085938 -4.65625 8.421875 -4.566406 8.703125 -4.390625 C 8.992188 -4.222656 9.222656 -3.960938 9.390625 -3.609375 C 9.554688 -3.253906 9.640625 -2.804688 9.640625 -2.265625 C 9.640625 -1.722656 9.554688 -1.273438 9.390625 -0.921875 C 9.222656 -0.566406 8.992188 -0.300781 8.703125 -0.125 C 8.421875 0.0390625 8.085938 0.125 7.703125 0.125 Z M 7.703125 -0.609375 C 8.066406 -0.609375 8.335938 -0.734375 8.515625 -0.984375 C 8.691406 -1.234375 8.78125 -1.660156 8.78125 -2.265625 C 8.78125 -2.859375 8.691406 -3.28125 8.515625 -3.53125 C 8.335938 -3.789062 8.066406 -3.921875 7.703125 -3.921875 C 7.328125 -3.921875 7.050781 -3.796875 6.875 -3.546875 C 6.695312 -3.296875 6.609375 -2.867188 6.609375 -2.265625 C 6.609375 -1.660156 6.695312 -1.234375 6.875 -0.984375 C 7.050781 -0.734375 7.328125 -0.609375 7.703125 -0.609375 Z M 7.703125 -0.609375 "/></g></g></g></svg>