<svg xmlns="http://www.w3.org/2000/svg" xmlns:xlink="http://www.w3.org/1999/xlink" width="381" zoomAndPan="magnify" viewBox="0 0 285.75 284.999983" height="380" preserveAspectRatio="xMidYMid meet" version="1.0"><defs><g/></defs><path fill="#00cadc" d="M 152.316406 21.9375 C 154.625 21.9375 156.933594 22.003906 159.238281 22.140625 C 161.542969 22.273438 163.839844 22.472656 166.136719 22.738281 C 168.429688 23.003906 170.710938 23.335938 172.984375 23.734375 C 175.261719 24.132812 177.519531 24.59375 179.769531 25.125 C 182.015625 25.652344 184.246094 26.246094 186.457031 26.902344 C 188.671875 27.558594 190.863281 28.28125 193.035156 29.066406 C 195.207031 29.847656 197.355469 30.695312 199.476562 31.601562 C 201.597656 32.511719 203.691406 33.480469 205.761719 34.507812 C 207.828125 35.539062 209.863281 36.625 211.867188 37.773438 C 213.867188 38.917969 215.839844 40.121094 217.773438 41.382812 C 219.707031 42.644531 221.601562 43.957031 223.460938 45.328125 C 225.320312 46.699219 227.136719 48.121094 228.914062 49.59375 C 230.6875 51.070312 232.421875 52.59375 234.109375 54.167969 C 235.796875 55.746094 237.4375 57.367188 239.03125 59.035156 C 240.625 60.707031 242.171875 62.421875 243.667969 64.179688 C 245.160156 65.9375 246.605469 67.738281 247.996094 69.582031 C 249.386719 71.421875 250.722656 73.304688 252.007812 75.222656 C 253.289062 77.144531 254.515625 79.097656 255.683594 81.089844 C 256.855469 83.078125 257.964844 85.101562 259.019531 87.15625 C 260.070312 89.210938 261.066406 91.292969 261.996094 93.40625 C 262.929688 95.519531 263.800781 97.65625 264.609375 99.816406 C 265.417969 101.980469 266.164062 104.164062 266.847656 106.367188 C 267.53125 108.574219 268.148438 110.796875 268.703125 113.039062 C 269.257812 115.277344 269.746094 117.535156 270.171875 119.804688 C 270.597656 122.074219 270.953125 124.351562 271.246094 126.640625 C 271.539062 128.933594 271.765625 131.230469 271.925781 133.53125 C 272.085938 135.835938 272.179688 138.140625 272.203125 140.449219 C 272.230469 142.757812 272.191406 145.066406 272.085938 147.371094 C 271.976562 149.675781 271.804688 151.980469 271.566406 154.273438 C 271.328125 156.570312 271.019531 158.859375 270.648438 161.136719 C 270.277344 163.414062 269.839844 165.679688 269.335938 167.933594 C 268.835938 170.1875 268.269531 172.425781 267.636719 174.644531 L 209.976562 158.238281 C 210.292969 157.128906 210.578125 156.011719 210.828125 154.882812 C 211.078125 153.757812 211.296875 152.625 211.484375 151.484375 C 211.667969 150.347656 211.820312 149.203125 211.941406 148.054688 C 212.0625 146.90625 212.148438 145.753906 212.203125 144.601562 C 212.253906 143.449219 212.273438 142.296875 212.261719 141.140625 C 212.25 139.988281 212.203125 138.835938 212.121094 137.683594 C 212.042969 136.53125 211.929688 135.382812 211.78125 134.238281 C 211.636719 133.09375 211.457031 131.953125 211.246094 130.820312 C 211.03125 129.683594 210.789062 128.554688 210.511719 127.4375 C 210.234375 126.316406 209.925781 125.203125 209.582031 124.101562 C 209.242188 123 208.867188 121.90625 208.464844 120.824219 C 208.058594 119.746094 207.625 118.675781 207.15625 117.621094 C 206.691406 116.5625 206.195312 115.523438 205.667969 114.496094 C 205.140625 113.46875 204.585938 112.457031 204 111.460938 C 203.417969 110.464844 202.804688 109.488281 202.164062 108.527344 C 201.519531 107.570312 200.851562 106.628906 200.15625 105.707031 C 199.460938 104.785156 198.738281 103.886719 197.992188 103.007812 C 197.246094 102.128906 196.472656 101.269531 195.675781 100.433594 C 194.878906 99.601562 194.058594 98.789062 193.214844 98 C 192.371094 97.214844 191.503906 96.453125 190.617188 95.714844 C 189.726562 94.976562 188.820312 94.265625 187.890625 93.582031 C 186.960938 92.894531 186.011719 92.238281 185.046875 91.609375 C 184.078125 90.976562 183.09375 90.375 182.089844 89.804688 C 181.089844 89.230469 180.070312 88.6875 179.039062 88.171875 C 178.003906 87.65625 176.957031 87.171875 175.898438 86.71875 C 174.835938 86.265625 173.761719 85.839844 172.675781 85.449219 C 171.589844 85.058594 170.496094 84.695312 169.386719 84.367188 C 168.28125 84.039062 167.167969 83.742188 166.042969 83.480469 C 164.917969 83.214844 163.789062 82.984375 162.652344 82.785156 C 161.515625 82.585938 160.375 82.417969 159.226562 82.285156 C 158.078125 82.152344 156.929688 82.054688 155.777344 81.988281 C 154.625 81.917969 153.472656 81.886719 152.316406 81.886719 Z M 152.316406 21.9375 " fill-opacity="1" fill-rule="nonzero"/><path fill="#ffde59" d="M 267.636719 174.644531 C 266.792969 177.605469 265.839844 180.53125 264.769531 183.417969 C 263.703125 186.304688 262.523438 189.148438 261.238281 191.945312 C 259.953125 194.742188 258.558594 197.484375 257.0625 200.175781 C 255.5625 202.867188 253.964844 205.492188 252.261719 208.058594 C 250.5625 210.625 248.765625 213.125 246.871094 215.550781 C 244.980469 217.980469 242.996094 220.332031 240.921875 222.605469 C 238.847656 224.882812 236.6875 227.074219 234.445312 229.183594 C 232.203125 231.292969 229.882812 233.3125 227.484375 235.242188 C 225.085938 237.171875 222.613281 239.007812 220.074219 240.746094 C 217.535156 242.488281 214.933594 244.125 212.265625 245.667969 C 209.597656 247.207031 206.878906 248.640625 204.101562 249.96875 C 201.324219 251.300781 198.5 252.519531 195.628906 253.632812 C 192.757812 254.746094 189.847656 255.746094 186.902344 256.632812 C 183.953125 257.519531 180.976562 258.292969 177.96875 258.953125 C 174.960938 259.613281 171.929688 260.152344 168.882812 260.578125 C 165.832031 261.003906 162.773438 261.3125 159.699219 261.5 C 156.625 261.691406 153.550781 261.761719 150.472656 261.714844 C 147.394531 261.667969 144.320312 261.5 141.253906 261.21875 C 138.191406 260.933594 135.140625 260.53125 132.105469 260.011719 C 129.070312 259.492188 126.058594 258.859375 123.074219 258.109375 C 120.089844 257.355469 117.136719 256.492188 114.214844 255.515625 C 111.296875 254.535156 108.417969 253.445312 105.585938 252.246094 C 102.75 251.046875 99.964844 249.738281 97.230469 248.324219 C 94.496094 246.910156 91.820312 245.390625 89.203125 243.769531 C 86.582031 242.148438 84.03125 240.429688 81.546875 238.613281 C 79.0625 236.796875 76.648438 234.886719 74.3125 232.882812 C 71.972656 230.878906 69.714844 228.789062 67.539062 226.613281 C 65.363281 224.4375 63.273438 222.179688 61.269531 219.839844 C 59.265625 217.503906 57.355469 215.089844 55.539062 212.605469 C 53.722656 210.121094 52 207.570312 50.382812 204.949219 C 48.761719 202.332031 47.242188 199.65625 45.828125 196.921875 C 44.414062 194.1875 43.105469 191.402344 41.90625 188.566406 L 97.113281 165.199219 C 97.710938 166.617188 98.367188 168.011719 99.074219 169.378906 C 99.78125 170.746094 100.539062 172.082031 101.347656 173.390625 C 102.160156 174.703125 103.019531 175.976562 103.929688 177.21875 C 104.835938 178.460938 105.792969 179.667969 106.792969 180.835938 C 107.796875 182.007812 108.839844 183.136719 109.929688 184.222656 C 111.015625 185.3125 112.144531 186.355469 113.316406 187.359375 C 114.484375 188.359375 115.691406 189.316406 116.933594 190.222656 C 118.175781 191.132812 119.449219 191.992188 120.757812 192.800781 C 122.070312 193.613281 123.40625 194.371094 124.773438 195.078125 C 126.140625 195.785156 127.535156 196.441406 128.953125 197.039062 C 130.367188 197.640625 131.808594 198.183594 133.265625 198.675781 C 134.726562 199.164062 136.203125 199.59375 137.695312 199.972656 C 139.1875 200.347656 140.695312 200.664062 142.210938 200.921875 C 143.730469 201.183594 145.253906 201.382812 146.785156 201.527344 C 148.320312 201.667969 149.855469 201.75 151.394531 201.773438 C 152.933594 201.796875 154.472656 201.761719 156.007812 201.667969 C 157.542969 201.574219 159.074219 201.417969 160.601562 201.207031 C 162.125 200.992188 163.640625 200.722656 165.144531 200.394531 C 166.644531 200.066406 168.136719 199.679688 169.609375 199.234375 C 171.082031 198.789062 172.539062 198.289062 173.972656 197.734375 C 175.410156 197.175781 176.820312 196.566406 178.210938 195.902344 C 179.597656 195.238281 180.957031 194.519531 182.292969 193.75 C 183.625 192.980469 184.925781 192.160156 186.195312 191.289062 C 187.464844 190.421875 188.699219 189.503906 189.902344 188.539062 C 191.101562 187.574219 192.261719 186.5625 193.382812 185.507812 C 194.503906 184.453125 195.582031 183.359375 196.621094 182.21875 C 197.65625 181.082031 198.648438 179.90625 199.59375 178.691406 C 200.542969 177.480469 201.441406 176.230469 202.289062 174.945312 C 203.140625 173.664062 203.941406 172.351562 204.6875 171.003906 C 205.4375 169.660156 206.136719 168.289062 206.777344 166.890625 C 207.421875 165.492188 208.011719 164.070312 208.542969 162.625 C 209.078125 161.183594 209.554688 159.71875 209.976562 158.238281 Z M 267.636719 174.644531 " fill-opacity="1" fill-rule="nonzero"/><path fill="#65a6fa" d="M 41.90625 188.566406 C 41.15625 186.796875 40.449219 185.007812 39.785156 183.203125 C 39.121094 181.394531 38.5 179.574219 37.925781 177.742188 C 37.351562 175.90625 36.816406 174.058594 36.332031 172.195312 C 35.84375 170.335938 35.402344 168.464844 35.003906 166.582031 C 34.609375 164.699219 34.257812 162.808594 33.949219 160.910156 C 33.644531 159.007812 33.382812 157.105469 33.167969 155.191406 C 32.953125 153.28125 32.785156 151.363281 32.664062 149.445312 C 32.542969 147.527344 32.464844 145.605469 32.4375 143.679688 C 32.40625 141.757812 32.425781 139.832031 32.488281 137.910156 C 32.550781 135.988281 32.660156 134.070312 32.816406 132.152344 C 32.96875 130.234375 33.171875 128.320312 33.417969 126.414062 C 33.667969 124.503906 33.960938 122.605469 34.296875 120.710938 C 34.636719 118.816406 35.019531 116.933594 35.449219 115.058594 C 35.878906 113.183594 36.355469 111.320312 36.875 109.46875 C 37.394531 107.617188 37.957031 105.777344 38.566406 103.953125 C 39.171875 102.125 39.824219 100.316406 40.519531 98.523438 C 41.214844 96.730469 41.953125 94.953125 42.730469 93.195312 C 43.511719 91.4375 44.335938 89.699219 45.199219 87.980469 C 46.0625 86.261719 46.96875 84.5625 47.914062 82.890625 C 48.859375 81.214844 49.84375 79.5625 50.871094 77.933594 C 51.894531 76.308594 52.960938 74.703125 54.0625 73.128906 C 55.164062 71.550781 56.304688 70.003906 57.480469 68.480469 C 58.65625 66.960938 59.871094 65.46875 61.117188 64.003906 C 62.367188 62.539062 63.652344 61.109375 64.96875 59.707031 C 66.285156 58.304688 67.636719 56.9375 69.019531 55.597656 C 70.40625 54.261719 71.820312 52.960938 73.265625 51.691406 C 74.710938 50.425781 76.1875 49.191406 77.695312 47.992188 C 79.199219 46.796875 80.734375 45.636719 82.292969 44.511719 C 83.855469 43.390625 85.441406 42.304688 87.058594 41.257812 C 88.671875 40.210938 90.308594 39.203125 91.972656 38.234375 C 93.632812 37.265625 95.316406 36.335938 97.023438 35.449219 C 98.730469 34.5625 100.457031 33.71875 102.207031 32.914062 L 127.261719 87.375 C 125.511719 88.179688 123.808594 89.066406 122.144531 90.035156 C 120.480469 91.003906 118.867188 92.050781 117.304688 93.171875 C 115.742188 94.296875 114.238281 95.492188 112.792969 96.761719 C 111.34375 98.03125 109.960938 99.367188 108.644531 100.769531 C 107.324219 102.171875 106.078125 103.636719 104.898438 105.15625 C 103.722656 106.679688 102.621094 108.253906 101.59375 109.882812 C 100.566406 111.511719 99.621094 113.1875 98.757812 114.90625 C 97.894531 116.625 97.113281 118.382812 96.417969 120.179688 C 95.722656 121.972656 95.117188 123.796875 94.597656 125.652344 C 94.078125 127.503906 93.648438 129.378906 93.308594 131.273438 C 92.96875 133.167969 92.722656 135.074219 92.566406 136.992188 C 92.410156 138.910156 92.347656 140.832031 92.378906 142.757812 C 92.40625 144.683594 92.527344 146.601562 92.742188 148.511719 C 92.957031 150.425781 93.265625 152.324219 93.660156 154.207031 C 94.058594 156.089844 94.546875 157.949219 95.121094 159.789062 C 95.699219 161.625 96.363281 163.429688 97.113281 165.199219 Z M 41.90625 188.566406 " fill-opacity="1" fill-rule="nonzero"/><path fill="#7e80e7" d="M 102.207031 32.914062 C 110.0625 29.300781 118.214844 26.566406 126.664062 24.714844 C 135.109375 22.867188 143.65625 21.941406 152.304688 21.9375 L 152.3125 81.886719 C 147.988281 81.886719 143.714844 82.351562 139.492188 83.273438 C 135.265625 84.199219 131.191406 85.566406 127.261719 87.375 Z M 102.207031 32.914062 " fill-opacity="1" fill-rule="nonzero"/><g fill="#000000" fill-opacity="1"><g transform="translate(143.747303, 283.635861)"><g><path d="M 3.390625 0.125 C 2.554688 0.125 1.894531 -0.0625 1.40625 -0.4375 C 0.914062 -0.8125 0.601562 -1.332031 0.46875 -2 L 1.21875 -2.328125 L 1.34375 -2.3125 C 1.488281 -1.800781 1.71875 -1.414062 2.03125 -1.15625 C 2.34375 -0.90625 2.796875 -0.78125 3.390625 -0.78125 C 3.992188 -0.78125 4.453125 -0.914062 4.765625 -1.1875 C 5.085938 -1.46875 5.25 -1.878906 5.25 -2.421875 C 5.25 -2.953125 5.085938 -3.351562 4.765625 -3.625 C 4.441406 -3.90625 3.929688 -4.046875 3.234375 -4.046875 L 2.3125 -4.046875 L 2.3125 -4.875 L 3.140625 -4.875 C 3.679688 -4.875 4.109375 -5.003906 4.421875 -5.265625 C 4.742188 -5.535156 4.90625 -5.914062 4.90625 -6.40625 C 4.90625 -6.875 4.765625 -7.222656 4.484375 -7.453125 C 4.210938 -7.679688 3.828125 -7.796875 3.328125 -7.796875 C 2.472656 -7.796875 1.863281 -7.453125 1.5 -6.765625 L 1.359375 -6.75 L 0.796875 -7.359375 C 1.023438 -7.753906 1.351562 -8.070312 1.78125 -8.3125 C 2.21875 -8.550781 2.734375 -8.671875 3.328125 -8.671875 C 3.878906 -8.671875 4.347656 -8.585938 4.734375 -8.421875 C 5.117188 -8.253906 5.410156 -8.007812 5.609375 -7.6875 C 5.804688 -7.363281 5.90625 -6.984375 5.90625 -6.546875 C 5.90625 -6.117188 5.78125 -5.742188 5.53125 -5.421875 C 5.289062 -5.109375 4.96875 -4.863281 4.5625 -4.6875 L 4.5625 -4.5625 C 5.132812 -4.425781 5.5625 -4.171875 5.84375 -3.796875 C 6.125 -3.421875 6.265625 -2.960938 6.265625 -2.421875 C 6.265625 -1.609375 6.023438 -0.976562 5.546875 -0.53125 C 5.066406 -0.09375 4.347656 0.125 3.390625 0.125 Z M 3.390625 0.125 "/></g></g><g transform="translate(150.702155, 283.635861)"><g><path d="M 3.609375 0.125 C 2.867188 0.125 2.269531 -0.0390625 1.8125 -0.375 C 1.351562 -0.71875 1.0625 -1.179688 0.9375 -1.765625 L 1.671875 -2.109375 L 1.8125 -2.09375 C 1.945312 -1.65625 2.15625 -1.328125 2.4375 -1.109375 C 2.71875 -0.890625 3.109375 -0.78125 3.609375 -0.78125 C 4.328125 -0.78125 4.875 -1.078125 5.25 -1.671875 C 5.625 -2.265625 5.8125 -3.179688 5.8125 -4.421875 L 5.6875 -4.453125 C 5.445312 -3.972656 5.140625 -3.609375 4.765625 -3.359375 C 4.398438 -3.117188 3.941406 -3 3.390625 -3 C 2.859375 -3 2.394531 -3.113281 2 -3.34375 C 1.601562 -3.582031 1.296875 -3.914062 1.078125 -4.34375 C 0.867188 -4.769531 0.765625 -5.265625 0.765625 -5.828125 C 0.765625 -6.390625 0.878906 -6.882812 1.109375 -7.3125 C 1.347656 -7.75 1.679688 -8.082031 2.109375 -8.3125 C 2.535156 -8.550781 3.035156 -8.671875 3.609375 -8.671875 C 4.617188 -8.671875 5.40625 -8.332031 5.96875 -7.65625 C 6.539062 -6.976562 6.828125 -5.882812 6.828125 -4.375 C 6.828125 -3.351562 6.691406 -2.503906 6.421875 -1.828125 C 6.148438 -1.160156 5.773438 -0.664062 5.296875 -0.34375 C 4.816406 -0.03125 4.253906 0.125 3.609375 0.125 Z M 3.609375 -3.890625 C 4.003906 -3.890625 4.34375 -3.960938 4.625 -4.109375 C 4.90625 -4.265625 5.125 -4.488281 5.28125 -4.78125 C 5.4375 -5.070312 5.515625 -5.421875 5.515625 -5.828125 C 5.515625 -6.234375 5.4375 -6.582031 5.28125 -6.875 C 5.125 -7.164062 4.90625 -7.390625 4.625 -7.546875 C 4.34375 -7.703125 4.003906 -7.78125 3.609375 -7.78125 C 3.046875 -7.78125 2.601562 -7.613281 2.28125 -7.28125 C 1.96875 -6.945312 1.8125 -6.460938 1.8125 -5.828125 C 1.8125 -5.191406 1.96875 -4.707031 2.28125 -4.375 C 2.601562 -4.050781 3.046875 -3.890625 3.609375 -3.890625 Z M 3.609375 -3.890625 "/></g></g></g><g fill="#000000" fill-opacity="1"><g transform="translate(157.768239, 283.635861)"><g><path d="M 1.578125 0.0625 C 1.347656 0.0625 1.171875 0 1.046875 -0.125 C 0.921875 -0.25 0.859375 -0.414062 0.859375 -0.625 C 0.859375 -0.832031 0.921875 -1 1.046875 -1.125 C 1.171875 -1.257812 1.347656 -1.328125 1.578125 -1.328125 C 1.796875 -1.328125 1.96875 -1.265625 2.09375 -1.140625 C 2.226562 -1.015625 2.296875 -0.847656 2.296875 -0.640625 C 2.296875 -0.429688 2.226562 -0.257812 2.09375 -0.125 C 1.96875 0 1.796875 0.0625 1.578125 0.0625 Z M 1.578125 0.0625 "/></g></g></g><g fill="#000000" fill-opacity="1"><g transform="translate(161.192977, 283.635861)"><g><path d="M 0.515625 -0.390625 C 0.515625 -0.859375 0.566406 -1.238281 0.671875 -1.53125 C 0.773438 -1.820312 0.953125 -2.09375 1.203125 -2.34375 C 1.453125 -2.59375 1.847656 -2.914062 2.390625 -3.3125 L 3.328125 -4 C 3.679688 -4.25 3.96875 -4.476562 4.1875 -4.6875 C 4.40625 -4.90625 4.578125 -5.140625 4.703125 -5.390625 C 4.828125 -5.648438 4.890625 -5.9375 4.890625 -6.25 C 4.890625 -6.75 4.753906 -7.128906 4.484375 -7.390625 C 4.210938 -7.648438 3.789062 -7.78125 3.21875 -7.78125 C 2.769531 -7.78125 2.367188 -7.671875 2.015625 -7.453125 C 1.671875 -7.242188 1.390625 -6.945312 1.171875 -6.5625 L 1.046875 -6.546875 L 0.4375 -7.171875 C 0.726562 -7.640625 1.109375 -8.003906 1.578125 -8.265625 C 2.046875 -8.535156 2.59375 -8.671875 3.21875 -8.671875 C 3.832031 -8.671875 4.335938 -8.566406 4.734375 -8.359375 C 5.140625 -8.160156 5.4375 -7.878906 5.625 -7.515625 C 5.820312 -7.148438 5.921875 -6.726562 5.921875 -6.25 C 5.921875 -5.863281 5.835938 -5.503906 5.671875 -5.171875 C 5.515625 -4.835938 5.289062 -4.523438 5 -4.234375 C 4.707031 -3.941406 4.335938 -3.632812 3.890625 -3.3125 L 2.9375 -2.609375 C 2.582031 -2.347656 2.3125 -2.125 2.125 -1.9375 C 1.9375 -1.757812 1.796875 -1.582031 1.703125 -1.40625 C 1.617188 -1.238281 1.578125 -1.046875 1.578125 -0.828125 L 5.921875 -0.828125 L 5.921875 0 L 0.515625 0 Z M 0.515625 -0.390625 "/></g></g></g><g fill="#000000" fill-opacity="1"><g transform="translate(168.112704, 283.635861)"><g><path d="M 2.4375 -3.90625 C 2.050781 -3.90625 1.710938 -3.988281 1.421875 -4.15625 C 1.128906 -4.332031 0.898438 -4.597656 0.734375 -4.953125 C 0.566406 -5.304688 0.484375 -5.753906 0.484375 -6.296875 C 0.484375 -7.085938 0.660156 -7.679688 1.015625 -8.078125 C 1.367188 -8.472656 1.84375 -8.671875 2.4375 -8.671875 C 2.8125 -8.671875 3.144531 -8.585938 3.4375 -8.421875 C 3.726562 -8.253906 3.953125 -7.992188 4.109375 -7.640625 C 4.273438 -7.285156 4.359375 -6.835938 4.359375 -6.296875 C 4.359375 -5.753906 4.273438 -5.304688 4.109375 -4.953125 C 3.953125 -4.597656 3.726562 -4.332031 3.4375 -4.15625 C 3.144531 -3.988281 2.8125 -3.90625 2.4375 -3.90625 Z M 2.625 0 L 1.765625 0 L 1.75 -0.125 L 7.46875 -8.5625 L 8.328125 -8.5625 L 8.34375 -8.4375 Z M 2.4375 -4.640625 C 2.800781 -4.640625 3.070312 -4.765625 3.25 -5.015625 C 3.425781 -5.273438 3.515625 -5.703125 3.515625 -6.296875 C 3.515625 -6.890625 3.425781 -7.3125 3.25 -7.5625 C 3.070312 -7.820312 2.800781 -7.953125 2.4375 -7.953125 C 2.1875 -7.953125 1.976562 -7.894531 1.8125 -7.78125 C 1.65625 -7.675781 1.535156 -7.503906 1.453125 -7.265625 C 1.378906 -7.023438 1.34375 -6.703125 1.34375 -6.296875 C 1.34375 -5.890625 1.378906 -5.566406 1.453125 -5.328125 C 1.535156 -5.085938 1.65625 -4.910156 1.8125 -4.796875 C 1.976562 -4.691406 2.1875 -4.640625 2.4375 -4.640625 Z M 7.6875 0.125 C 7.09375 0.125 6.617188 -0.0703125 6.265625 -0.46875 C 5.921875 -0.863281 5.75 -1.460938 5.75 -2.265625 C 5.75 -3.054688 5.921875 -3.648438 6.265625 -4.046875 C 6.617188 -4.441406 7.09375 -4.640625 7.6875 -4.640625 C 8.070312 -4.640625 8.40625 -4.554688 8.6875 -4.390625 C 8.976562 -4.222656 9.207031 -3.957031 9.375 -3.59375 C 9.539062 -3.238281 9.625 -2.796875 9.625 -2.265625 C 9.625 -1.722656 9.539062 -1.273438 9.375 -0.921875 C 9.207031 -0.566406 8.976562 -0.300781 8.6875 -0.125 C 8.40625 0.0390625 8.070312 0.125 7.6875 0.125 Z M 7.6875 -0.609375 C 8.050781 -0.609375 8.320312 -0.734375 8.5 -0.984375 C 8.675781 -1.234375 8.765625 -1.660156 8.765625 -2.265625 C 8.765625 -2.859375 8.675781 -3.28125 8.5 -3.53125 C 8.320312 -3.78125 8.050781 -3.90625 7.6875 -3.90625 C 7.320312 -3.90625 7.046875 -3.78125 6.859375 -3.53125 C 6.679688 -3.28125 6.59375 -2.859375 6.59375 -2.265625 C 6.59375 -1.660156 6.679688 -1.234375 6.859375 -0.984375 C 7.046875 -0.734375 7.320312 -0.609375 7.6875 -0.609375 Z M 7.6875 -0.609375 "/></g></g></g><g fill="#000000" fill-opacity="1"><g transform="translate(251.172844, 62.040676)"><g><path d="M 0.515625 -0.390625 C 0.515625 -0.859375 0.566406 -1.238281 0.671875 -1.53125 C 0.773438 -1.820312 0.953125 -2.09375 1.203125 -2.34375 C 1.453125 -2.59375 1.847656 -2.914062 2.390625 -3.3125 L 3.328125 -4 C 3.679688 -4.25 3.96875 -4.476562 4.1875 -4.6875 C 4.40625 -4.90625 4.578125 -5.140625 4.703125 -5.390625 C 4.828125 -5.648438 4.890625 -5.9375 4.890625 -6.25 C 4.890625 -6.75 4.753906 -7.128906 4.484375 -7.390625 C 4.210938 -7.648438 3.789062 -7.78125 3.21875 -7.78125 C 2.769531 -7.78125 2.367188 -7.671875 2.015625 -7.453125 C 1.671875 -7.242188 1.390625 -6.945312 1.171875 -6.5625 L 1.046875 -6.546875 L 0.4375 -7.171875 C 0.726562 -7.640625 1.109375 -8.003906 1.578125 -8.265625 C 2.046875 -8.535156 2.59375 -8.671875 3.21875 -8.671875 C 3.832031 -8.671875 4.335938 -8.566406 4.734375 -8.359375 C 5.140625 -8.160156 5.4375 -7.878906 5.625 -7.515625 C 5.820312 -7.148438 5.921875 -6.726562 5.921875 -6.25 C 5.921875 -5.863281 5.835938 -5.503906 5.671875 -5.171875 C 5.515625 -4.835938 5.289062 -4.523438 5 -4.234375 C 4.707031 -3.941406 4.335938 -3.632812 3.890625 -3.3125 L 2.9375 -2.609375 C 2.582031 -2.347656 2.3125 -2.125 2.125 -1.9375 C 1.9375 -1.757812 1.796875 -1.582031 1.703125 -1.40625 C 1.617188 -1.238281 1.578125 -1.046875 1.578125 -0.828125 L 5.921875 -0.828125 L 5.921875 0 L 0.515625 0 Z M 0.515625 -0.390625 "/></g></g><g transform="translate(257.753024, 62.040676)"><g><path d="M 3.609375 0.125 C 2.867188 0.125 2.269531 -0.0390625 1.8125 -0.375 C 1.351562 -0.71875 1.0625 -1.179688 0.9375 -1.765625 L 1.671875 -2.109375 L 1.8125 -2.09375 C 1.945312 -1.65625 2.15625 -1.328125 2.4375 -1.109375 C 2.71875 -0.890625 3.109375 -0.78125 3.609375 -0.78125 C 4.328125 -0.78125 4.875 -1.078125 5.25 -1.671875 C 5.625 -2.265625 5.8125 -3.179688 5.8125 -4.421875 L 5.6875 -4.453125 C 5.445312 -3.972656 5.140625 -3.609375 4.765625 -3.359375 C 4.398438 -3.117188 3.941406 -3 3.390625 -3 C 2.859375 -3 2.394531 -3.113281 2 -3.34375 C 1.601562 -3.582031 1.296875 -3.914062 1.078125 -4.34375 C 0.867188 -4.769531 0.765625 -5.265625 0.765625 -5.828125 C 0.765625 -6.390625 0.878906 -6.882812 1.109375 -7.3125 C 1.347656 -7.75 1.679688 -8.082031 2.109375 -8.3125 C 2.535156 -8.550781 3.035156 -8.671875 3.609375 -8.671875 C 4.617188 -8.671875 5.40625 -8.332031 5.96875 -7.65625 C 6.539062 -6.976562 6.828125 -5.882812 6.828125 -4.375 C 6.828125 -3.351562 6.691406 -2.503906 6.421875 -1.828125 C 6.148438 -1.160156 5.773438 -0.664062 5.296875 -0.34375 C 4.816406 -0.03125 4.253906 0.125 3.609375 0.125 Z M 3.609375 -3.890625 C 4.003906 -3.890625 4.34375 -3.960938 4.625 -4.109375 C 4.90625 -4.265625 5.125 -4.488281 5.28125 -4.78125 C 5.4375 -5.070312 5.515625 -5.421875 5.515625 -5.828125 C 5.515625 -6.234375 5.4375 -6.582031 5.28125 -6.875 C 5.125 -7.164062 4.90625 -7.390625 4.625 -7.546875 C 4.34375 -7.703125 4.003906 -7.78125 3.609375 -7.78125 C 3.046875 -7.78125 2.601562 -7.613281 2.28125 -7.28125 C 1.96875 -6.945312 1.8125 -6.460938 1.8125 -5.828125 C 1.8125 -5.191406 1.96875 -4.707031 2.28125 -4.375 C 2.601562 -4.050781 3.046875 -3.890625 3.609375 -3.890625 Z M 3.609375 -3.890625 "/></g></g></g><g fill="#000000" fill-opacity="1"><g transform="translate(264.819108, 62.040676)"><g><path d="M 1.578125 0.0625 C 1.347656 0.0625 1.171875 0 1.046875 -0.125 C 0.921875 -0.25 0.859375 -0.414062 0.859375 -0.625 C 0.859375 -0.832031 0.921875 -1 1.046875 -1.125 C 1.171875 -1.257812 1.347656 -1.328125 1.578125 -1.328125 C 1.796875 -1.328125 1.96875 -1.265625 2.09375 -1.140625 C 2.226562 -1.015625 2.296875 -0.847656 2.296875 -0.640625 C 2.296875 -0.429688 2.226562 -0.257812 2.09375 -0.125 C 1.96875 0 1.796875 0.0625 1.578125 0.0625 Z M 1.578125 0.0625 "/></g></g></g><g fill="#000000" fill-opacity="1"><g transform="translate(267.828194, 62.040676)"><g><path d="M 5.359375 0 L 4.40625 0 L 4.40625 -2.046875 L 0.390625 -2.046875 L 0.390625 -2.84375 L 4.171875 -8.5625 L 5.359375 -8.5625 L 5.359375 -2.84375 L 6.828125 -2.84375 L 6.828125 -2.046875 L 5.359375 -2.046875 Z M 1.578125 -2.96875 L 1.625 -2.84375 L 4.40625 -2.84375 L 4.40625 -7.15625 L 4.265625 -7.1875 Z M 1.578125 -2.96875 "/></g></g></g><g fill="#000000" fill-opacity="1"><g transform="translate(274.665961, 62.040676)"><g><path d="M 2.4375 -3.90625 C 2.050781 -3.90625 1.710938 -3.988281 1.421875 -4.15625 C 1.128906 -4.332031 0.898438 -4.597656 0.734375 -4.953125 C 0.566406 -5.304688 0.484375 -5.753906 0.484375 -6.296875 C 0.484375 -7.085938 0.660156 -7.679688 1.015625 -8.078125 C 1.367188 -8.472656 1.84375 -8.671875 2.4375 -8.671875 C 2.8125 -8.671875 3.144531 -8.585938 3.4375 -8.421875 C 3.726562 -8.253906 3.953125 -7.992188 4.109375 -7.640625 C 4.273438 -7.285156 4.359375 -6.835938 4.359375 -6.296875 C 4.359375 -5.753906 4.273438 -5.304688 4.109375 -4.953125 C 3.953125 -4.597656 3.726562 -4.332031 3.4375 -4.15625 C 3.144531 -3.988281 2.8125 -3.90625 2.4375 -3.90625 Z M 2.625 0 L 1.765625 0 L 1.75 -0.125 L 7.46875 -8.5625 L 8.328125 -8.5625 L 8.34375 -8.4375 Z M 2.4375 -4.640625 C 2.800781 -4.640625 3.070312 -4.765625 3.25 -5.015625 C 3.425781 -5.273438 3.515625 -5.703125 3.515625 -6.296875 C 3.515625 -6.890625 3.425781 -7.3125 3.25 -7.5625 C 3.070312 -7.820312 2.800781 -7.953125 2.4375 -7.953125 C 2.1875 -7.953125 1.976562 -7.894531 1.8125 -7.78125 C 1.65625 -7.675781 1.535156 -7.503906 1.453125 -7.265625 C 1.378906 -7.023438 1.34375 -6.703125 1.34375 -6.296875 C 1.34375 -5.890625 1.378906 -5.566406 1.453125 -5.328125 C 1.535156 -5.085938 1.65625 -4.910156 1.8125 -4.796875 C 1.976562 -4.691406 2.1875 -4.640625 2.4375 -4.640625 Z M 7.6875 0.125 C 7.09375 0.125 6.617188 -0.0703125 6.265625 -0.46875 C 5.921875 -0.863281 5.75 -1.460938 5.75 -2.265625 C 5.75 -3.054688 5.921875 -3.648438 6.265625 -4.046875 C 6.617188 -4.441406 7.09375 -4.640625 7.6875 -4.640625 C 8.070312 -4.640625 8.40625 -4.554688 8.6875 -4.390625 C 8.976562 -4.222656 9.207031 -3.957031 9.375 -3.59375 C 9.539062 -3.238281 9.625 -2.796875 9.625 -2.265625 C 9.625 -1.722656 9.539062 -1.273438 9.375 -0.921875 C 9.207031 -0.566406 8.976562 -0.300781 8.6875 -0.125 C 8.40625 0.0390625 8.070312 0.125 7.6875 0.125 Z M 7.6875 -0.609375 C 8.050781 -0.609375 8.320312 -0.734375 8.5 -0.984375 C 8.675781 -1.234375 8.765625 -1.660156 8.765625 -2.265625 C 8.765625 -2.859375 8.675781 -3.28125 8.5 -3.53125 C 8.320312 -3.78125 8.050781 -3.90625 7.6875 -3.90625 C 7.320312 -3.90625 7.046875 -3.78125 6.859375 -3.53125 C 6.679688 -3.28125 6.59375 -2.859375 6.59375 -2.265625 C 6.59375 -1.660156 6.679688 -1.234375 6.859375 -0.984375 C 7.046875 -0.734375 7.320312 -0.609375 7.6875 -0.609375 Z M 7.6875 -0.609375 "/></g></g></g><g fill="#000000" fill-opacity="1"><g transform="translate(1.020616, 96.861772)"><g><path d="M 0.515625 -0.390625 C 0.515625 -0.859375 0.566406 -1.238281 0.671875 -1.53125 C 0.773438 -1.820312 0.953125 -2.09375 1.203125 -2.34375 C 1.453125 -2.59375 1.847656 -2.914062 2.390625 -3.3125 L 3.328125 -4 C 3.679688 -4.25 3.96875 -4.476562 4.1875 -4.6875 C 4.40625 -4.90625 4.578125 -5.140625 4.703125 -5.390625 C 4.828125 -5.648438 4.890625 -5.9375 4.890625 -6.25 C 4.890625 -6.75 4.753906 -7.128906 4.484375 -7.390625 C 4.210938 -7.648438 3.789062 -7.78125 3.21875 -7.78125 C 2.769531 -7.78125 2.367188 -7.671875 2.015625 -7.453125 C 1.671875 -7.242188 1.390625 -6.945312 1.171875 -6.5625 L 1.046875 -6.546875 L 0.4375 -7.171875 C 0.726562 -7.640625 1.109375 -8.003906 1.578125 -8.265625 C 2.046875 -8.535156 2.59375 -8.671875 3.21875 -8.671875 C 3.832031 -8.671875 4.335938 -8.566406 4.734375 -8.359375 C 5.140625 -8.160156 5.4375 -7.878906 5.625 -7.515625 C 5.820312 -7.148438 5.921875 -6.726562 5.921875 -6.25 C 5.921875 -5.863281 5.835938 -5.503906 5.671875 -5.171875 C 5.515625 -4.835938 5.289062 -4.523438 5 -4.234375 C 4.707031 -3.941406 4.335938 -3.632812 3.890625 -3.3125 L 2.9375 -2.609375 C 2.582031 -2.347656 2.3125 -2.125 2.125 -1.9375 C 1.9375 -1.757812 1.796875 -1.582031 1.703125 -1.40625 C 1.617188 -1.238281 1.578125 -1.046875 1.578125 -0.828125 L 5.921875 -0.828125 L 5.921875 0 L 0.515625 0 Z M 0.515625 -0.390625 "/></g></g></g><g fill="#000000" fill-opacity="1"><g transform="translate(7.378335, 96.861772)"><g><path d="M 5.359375 0 L 4.40625 0 L 4.40625 -2.046875 L 0.390625 -2.046875 L 0.390625 -2.84375 L 4.171875 -8.5625 L 5.359375 -8.5625 L 5.359375 -2.84375 L 6.828125 -2.84375 L 6.828125 -2.046875 L 5.359375 -2.046875 Z M 1.578125 -2.96875 L 1.625 -2.84375 L 4.40625 -2.84375 L 4.40625 -7.15625 L 4.265625 -7.1875 Z M 1.578125 -2.96875 "/></g></g></g><g fill="#000000" fill-opacity="1"><g transform="translate(14.485398, 96.861772)"><g><path d="M 1.578125 0.0625 C 1.347656 0.0625 1.171875 0 1.046875 -0.125 C 0.921875 -0.25 0.859375 -0.414062 0.859375 -0.625 C 0.859375 -0.832031 0.921875 -1 1.046875 -1.125 C 1.171875 -1.257812 1.347656 -1.328125 1.578125 -1.328125 C 1.796875 -1.328125 1.96875 -1.265625 2.09375 -1.140625 C 2.226562 -1.015625 2.296875 -0.847656 2.296875 -0.640625 C 2.296875 -0.429688 2.226562 -0.257812 2.09375 -0.125 C 1.96875 0 1.796875 0.0625 1.578125 0.0625 Z M 1.578125 0.0625 "/></g></g><g transform="translate(17.64084, 96.861772)"><g><path d="M 3.515625 0.125 C 2.722656 0.125 2.085938 -0.0507812 1.609375 -0.40625 C 1.128906 -0.757812 0.816406 -1.265625 0.671875 -1.921875 L 1.421875 -2.265625 L 1.546875 -2.234375 C 1.648438 -1.898438 1.78125 -1.628906 1.9375 -1.421875 C 2.09375 -1.210938 2.296875 -1.050781 2.546875 -0.9375 C 2.804688 -0.832031 3.128906 -0.78125 3.515625 -0.78125 C 4.097656 -0.78125 4.550781 -0.953125 4.875 -1.296875 C 5.195312 -1.640625 5.359375 -2.144531 5.359375 -2.8125 C 5.359375 -3.476562 5.195312 -3.984375 4.875 -4.328125 C 4.5625 -4.679688 4.125 -4.859375 3.5625 -4.859375 C 3.144531 -4.859375 2.800781 -4.769531 2.53125 -4.59375 C 2.269531 -4.425781 2.035156 -4.164062 1.828125 -3.8125 L 1.03125 -3.890625 L 1.1875 -8.5625 L 5.984375 -8.5625 L 5.984375 -7.703125 L 2.0625 -7.703125 L 1.96875 -4.859375 L 2.09375 -4.84375 C 2.289062 -5.132812 2.535156 -5.351562 2.828125 -5.5 C 3.117188 -5.644531 3.46875 -5.71875 3.875 -5.71875 C 4.382812 -5.71875 4.828125 -5.601562 5.203125 -5.375 C 5.585938 -5.144531 5.882812 -4.8125 6.09375 -4.375 C 6.300781 -3.945312 6.40625 -3.425781 6.40625 -2.8125 C 6.40625 -2.195312 6.285156 -1.671875 6.046875 -1.234375 C 5.804688 -0.796875 5.46875 -0.457031 5.03125 -0.21875 C 4.601562 0.0078125 4.097656 0.125 3.515625 0.125 Z M 3.515625 0.125 "/></g></g></g><g fill="#000000" fill-opacity="1"><g transform="translate(24.502025, 96.861772)"><g><path d="M 2.4375 -3.90625 C 2.050781 -3.90625 1.710938 -3.988281 1.421875 -4.15625 C 1.128906 -4.332031 0.898438 -4.597656 0.734375 -4.953125 C 0.566406 -5.304688 0.484375 -5.753906 0.484375 -6.296875 C 0.484375 -7.085938 0.660156 -7.679688 1.015625 -8.078125 C 1.367188 -8.472656 1.84375 -8.671875 2.4375 -8.671875 C 2.8125 -8.671875 3.144531 -8.585938 3.4375 -8.421875 C 3.726562 -8.253906 3.953125 -7.992188 4.109375 -7.640625 C 4.273438 -7.285156 4.359375 -6.835938 4.359375 -6.296875 C 4.359375 -5.753906 4.273438 -5.304688 4.109375 -4.953125 C 3.953125 -4.597656 3.726562 -4.332031 3.4375 -4.15625 C 3.144531 -3.988281 2.8125 -3.90625 2.4375 -3.90625 Z M 2.625 0 L 1.765625 0 L 1.75 -0.125 L 7.46875 -8.5625 L 8.328125 -8.5625 L 8.34375 -8.4375 Z M 2.4375 -4.640625 C 2.800781 -4.640625 3.070312 -4.765625 3.25 -5.015625 C 3.425781 -5.273438 3.515625 -5.703125 3.515625 -6.296875 C 3.515625 -6.890625 3.425781 -7.3125 3.25 -7.5625 C 3.070312 -7.820312 2.800781 -7.953125 2.4375 -7.953125 C 2.1875 -7.953125 1.976562 -7.894531 1.8125 -7.78125 C 1.65625 -7.675781 1.535156 -7.503906 1.453125 -7.265625 C 1.378906 -7.023438 1.34375 -6.703125 1.34375 -6.296875 C 1.34375 -5.890625 1.378906 -5.566406 1.453125 -5.328125 C 1.535156 -5.085938 1.65625 -4.910156 1.8125 -4.796875 C 1.976562 -4.691406 2.1875 -4.640625 2.4375 -4.640625 Z M 7.6875 0.125 C 7.09375 0.125 6.617188 -0.0703125 6.265625 -0.46875 C 5.921875 -0.863281 5.75 -1.460938 5.75 -2.265625 C 5.75 -3.054688 5.921875 -3.648438 6.265625 -4.046875 C 6.617188 -4.441406 7.09375 -4.640625 7.6875 -4.640625 C 8.070312 -4.640625 8.40625 -4.554688 8.6875 -4.390625 C 8.976562 -4.222656 9.207031 -3.957031 9.375 -3.59375 C 9.539062 -3.238281 9.625 -2.796875 9.625 -2.265625 C 9.625 -1.722656 9.539062 -1.273438 9.375 -0.921875 C 9.207031 -0.566406 8.976562 -0.300781 8.6875 -0.125 C 8.40625 0.0390625 8.070312 0.125 7.6875 0.125 Z M 7.6875 -0.609375 C 8.050781 -0.609375 8.320312 -0.734375 8.5 -0.984375 C 8.675781 -1.234375 8.765625 -1.660156 8.765625 -2.265625 C 8.765625 -2.859375 8.675781 -3.28125 8.5 -3.53125 C 8.320312 -3.78125 8.050781 -3.90625 7.6875 -3.90625 C 7.320312 -3.90625 7.046875 -3.78125 6.859375 -3.53125 C 6.679688 -3.28125 6.59375 -2.859375 6.59375 -2.265625 C 6.59375 -1.660156 6.679688 -1.234375 6.859375 -0.984375 C 7.046875 -0.734375 7.320312 -0.609375 7.6875 -0.609375 Z M 7.6875 -0.609375 "/></g></g></g><g fill="#000000" fill-opacity="1"><g transform="translate(108.621785, 15.51107)"><g><path d="M 4.078125 0.125 C 3.472656 0.125 2.929688 -0.0195312 2.453125 -0.3125 C 1.972656 -0.601562 1.585938 -1.078125 1.296875 -1.734375 C 1.015625 -2.390625 0.875 -3.238281 0.875 -4.28125 C 0.875 -5.289062 1.015625 -6.125 1.296875 -6.78125 C 1.585938 -7.4375 1.976562 -7.914062 2.46875 -8.21875 C 2.96875 -8.519531 3.535156 -8.671875 4.171875 -8.671875 C 5.273438 -8.671875 6.082031 -8.335938 6.59375 -7.671875 L 6.109375 -7.015625 L 5.96875 -7.015625 C 5.539062 -7.523438 4.941406 -7.78125 4.171875 -7.78125 C 3.429688 -7.78125 2.863281 -7.5 2.46875 -6.9375 C 2.082031 -6.375 1.890625 -5.476562 1.890625 -4.25 L 2.015625 -4.21875 C 2.253906 -4.695312 2.5625 -5.054688 2.9375 -5.296875 C 3.3125 -5.546875 3.769531 -5.671875 4.3125 -5.671875 C 4.851562 -5.671875 5.320312 -5.554688 5.71875 -5.328125 C 6.113281 -5.097656 6.414062 -4.765625 6.625 -4.328125 C 6.84375 -3.890625 6.953125 -3.375 6.953125 -2.78125 C 6.953125 -2.1875 6.832031 -1.671875 6.59375 -1.234375 C 6.363281 -0.796875 6.03125 -0.457031 5.59375 -0.21875 C 5.164062 0.0078125 4.660156 0.125 4.078125 0.125 Z M 4.078125 -0.78125 C 4.648438 -0.78125 5.09375 -0.953125 5.40625 -1.296875 C 5.726562 -1.640625 5.890625 -2.132812 5.890625 -2.78125 C 5.890625 -3.4375 5.726562 -3.9375 5.40625 -4.28125 C 5.09375 -4.625 4.648438 -4.796875 4.078125 -4.796875 C 3.691406 -4.796875 3.359375 -4.710938 3.078125 -4.546875 C 2.796875 -4.390625 2.578125 -4.160156 2.421875 -3.859375 C 2.265625 -3.566406 2.1875 -3.207031 2.1875 -2.78125 C 2.1875 -2.363281 2.265625 -2.003906 2.421875 -1.703125 C 2.578125 -1.410156 2.796875 -1.179688 3.078125 -1.015625 C 3.359375 -0.859375 3.691406 -0.78125 4.078125 -0.78125 Z M 4.078125 -0.78125 "/></g></g></g><g fill="#000000" fill-opacity="1"><g transform="translate(115.99229, 15.51107)"><g><path d="M 1.578125 0.0625 C 1.347656 0.0625 1.171875 0 1.046875 -0.125 C 0.921875 -0.25 0.859375 -0.414062 0.859375 -0.625 C 0.859375 -0.832031 0.921875 -1 1.046875 -1.125 C 1.171875 -1.257812 1.347656 -1.328125 1.578125 -1.328125 C 1.796875 -1.328125 1.96875 -1.265625 2.09375 -1.140625 C 2.226562 -1.015625 2.296875 -0.847656 2.296875 -0.640625 C 2.296875 -0.429688 2.226562 -0.257812 2.09375 -0.125 C 1.96875 0 1.796875 0.0625 1.578125 0.0625 Z M 1.578125 0.0625 "/></g></g></g><g fill="#000000" fill-opacity="1"><g transform="translate(118.92527, 15.51107)"><g><path d="M 3.609375 0.125 C 2.867188 0.125 2.269531 -0.0390625 1.8125 -0.375 C 1.351562 -0.71875 1.0625 -1.179688 0.9375 -1.765625 L 1.671875 -2.109375 L 1.8125 -2.09375 C 1.945312 -1.65625 2.15625 -1.328125 2.4375 -1.109375 C 2.71875 -0.890625 3.109375 -0.78125 3.609375 -0.78125 C 4.328125 -0.78125 4.875 -1.078125 5.25 -1.671875 C 5.625 -2.265625 5.8125 -3.179688 5.8125 -4.421875 L 5.6875 -4.453125 C 5.445312 -3.972656 5.140625 -3.609375 4.765625 -3.359375 C 4.398438 -3.117188 3.941406 -3 3.390625 -3 C 2.859375 -3 2.394531 -3.113281 2 -3.34375 C 1.601562 -3.582031 1.296875 -3.914062 1.078125 -4.34375 C 0.867188 -4.769531 0.765625 -5.265625 0.765625 -5.828125 C 0.765625 -6.390625 0.878906 -6.882812 1.109375 -7.3125 C 1.347656 -7.75 1.679688 -8.082031 2.109375 -8.3125 C 2.535156 -8.550781 3.035156 -8.671875 3.609375 -8.671875 C 4.617188 -8.671875 5.40625 -8.332031 5.96875 -7.65625 C 6.539062 -6.976562 6.828125 -5.882812 6.828125 -4.375 C 6.828125 -3.351562 6.691406 -2.503906 6.421875 -1.828125 C 6.148438 -1.160156 5.773438 -0.664062 5.296875 -0.34375 C 4.816406 -0.03125 4.253906 0.125 3.609375 0.125 Z M 3.609375 -3.890625 C 4.003906 -3.890625 4.34375 -3.960938 4.625 -4.109375 C 4.90625 -4.265625 5.125 -4.488281 5.28125 -4.78125 C 5.4375 -5.070312 5.515625 -5.421875 5.515625 -5.828125 C 5.515625 -6.234375 5.4375 -6.582031 5.28125 -6.875 C 5.125 -7.164062 4.90625 -7.390625 4.625 -7.546875 C 4.34375 -7.703125 4.003906 -7.78125 3.609375 -7.78125 C 3.046875 -7.78125 2.601562 -7.613281 2.28125 -7.28125 C 1.96875 -6.945312 1.8125 -6.460938 1.8125 -5.828125 C 1.8125 -5.191406 1.96875 -4.707031 2.28125 -4.375 C 2.601562 -4.050781 3.046875 -3.890625 3.609375 -3.890625 Z M 3.609375 -3.890625 "/></g></g><g transform="translate(126.629467, 15.51107)"><g><path d="M 2.4375 -3.90625 C 2.050781 -3.90625 1.710938 -3.988281 1.421875 -4.15625 C 1.128906 -4.332031 0.898438 -4.597656 0.734375 -4.953125 C 0.566406 -5.304688 0.484375 -5.753906 0.484375 -6.296875 C 0.484375 -7.085938 0.660156 -7.679688 1.015625 -8.078125 C 1.367188 -8.472656 1.84375 -8.671875 2.4375 -8.671875 C 2.8125 -8.671875 3.144531 -8.585938 3.4375 -8.421875 C 3.726562 -8.253906 3.953125 -7.992188 4.109375 -7.640625 C 4.273438 -7.285156 4.359375 -6.835938 4.359375 -6.296875 C 4.359375 -5.753906 4.273438 -5.304688 4.109375 -4.953125 C 3.953125 -4.597656 3.726562 -4.332031 3.4375 -4.15625 C 3.144531 -3.988281 2.8125 -3.90625 2.4375 -3.90625 Z M 2.625 0 L 1.765625 0 L 1.75 -0.125 L 7.46875 -8.5625 L 8.328125 -8.5625 L 8.34375 -8.4375 Z M 2.4375 -4.640625 C 2.800781 -4.640625 3.070312 -4.765625 3.25 -5.015625 C 3.425781 -5.273438 3.515625 -5.703125 3.515625 -6.296875 C 3.515625 -6.890625 3.425781 -7.3125 3.25 -7.5625 C 3.070312 -7.820312 2.800781 -7.953125 2.4375 -7.953125 C 2.1875 -7.953125 1.976562 -7.894531 1.8125 -7.78125 C 1.65625 -7.675781 1.535156 -7.503906 1.453125 -7.265625 C 1.378906 -7.023438 1.34375 -6.703125 1.34375 -6.296875 C 1.34375 -5.890625 1.378906 -5.566406 1.453125 -5.328125 C 1.535156 -5.085938 1.65625 -4.910156 1.8125 -4.796875 C 1.976562 -4.691406 2.1875 -4.640625 2.4375 -4.640625 Z M 7.6875 0.125 C 7.09375 0.125 6.617188 -0.0703125 6.265625 -0.46875 C 5.921875 -0.863281 5.75 -1.460938 5.75 -2.265625 C 5.75 -3.054688 5.921875 -3.648438 6.265625 -4.046875 C 6.617188 -4.441406 7.09375 -4.640625 7.6875 -4.640625 C 8.070312 -4.640625 8.40625 -4.554688 8.6875 -4.390625 C 8.976562 -4.222656 9.207031 -3.957031 9.375 -3.59375 C 9.539062 -3.238281 9.625 -2.796875 9.625 -2.265625 C 9.625 -1.722656 9.539062 -1.273438 9.375 -0.921875 C 9.207031 -0.566406 8.976562 -0.300781 8.6875 -0.125 C 8.40625 0.0390625 8.070312 0.125 7.6875 0.125 Z M 7.6875 -0.609375 C 8.050781 -0.609375 8.320312 -0.734375 8.5 -0.984375 C 8.675781 -1.234375 8.765625 -1.660156 8.765625 -2.265625 C 8.765625 -2.859375 8.675781 -3.28125 8.5 -3.53125 C 8.320312 -3.78125 8.050781 -3.90625 7.6875 -3.90625 C 7.320312 -3.90625 7.046875 -3.78125 6.859375 -3.53125 C 6.679688 -3.28125 6.59375 -2.859375 6.59375 -2.265625 C 6.59375 -1.660156 6.679688 -1.234375 6.859375 -0.984375 C 7.046875 -0.734375 7.320312 -0.609375 7.6875 -0.609375 Z M 7.6875 -0.609375 "/></g></g></g></svg>